<?xml version="1.0" encoding="UTF-8"?>
<svg id="Laag_2" data-name="Laag 2" xmlns="http://www.w3.org/2000/svg" viewBox="0 0 1330.73 556.81">
  <defs>
    <style>
      .cls-1 {
        fill: none;
        stroke: #610f0c;
        stroke-miterlimit: 10;
        stroke-width: 4px;
      }

      .cls-2 {
        fill: #610f0c;
        opacity: .6;
      }

      .cls-3 {
        font-size: 74.05px;
      }

      .cls-3, .cls-4 {
        font-family: HelveticaNeue-Medium, 'Helvetica Neue';
        font-weight: 500;
      }

      .cls-4 {
        font-size: 50px;
      }

      .cls-5 {
        letter-spacing: -.07em;
      }
    </style>
  </defs>
  <text class="cls-4" transform="translate(541.13 76.64)"><tspan x="0" y="0">M</tspan><tspan class="cls-5" x="44.45" y="0">A</tspan><tspan x="74.1" y="0">Y 2022</tspan></text>
  <text class="cls-3" transform="translate(776.52 195.12)"><tspan x="0" y="0">06</tspan></text>
  <rect class="cls-1" x="444.24" y="112.56" width="442.24" height="442.24"/>
  <text class="cls-3" transform="translate(1218.77 195.12)"><tspan x="0" y="0">07</tspan></text>
  <path class="cls-1" d="M886.49,112.56h442.24v412.24c0,16.56-13.44,30-30,30h-412.24V112.56h0Z"/>
  <text class="cls-3" transform="translate(334.28 195.12)"><tspan x="0" y="0">05</tspan></text>
  <path class="cls-1" d="M20.31,2h1278.42c16.56,0,30,13.44,30,30v80.56H2V20.31C2,10.21,10.21,2,20.31,2Z"/>
  <path class="cls-1" d="M2,112.56h442.24v442.24H32c-16.56,0-30-13.44-30-30V112.56h0Z"/>
  <path class="cls-2" d="M800.02,222.24c-7.16-3.1-15.44-4.39-23.3-3.86-6.11.97-12.01,2.9-18.06,4.1-12.76,1.78-23.72,8.21-33.22,16.08-8.35,5.65-17.03,11.03-23.81,18.37-5.9,7.33-12.9,13.98-17.93,21.91-13.61,13.78-26.15,28.57-34.54,45.7-20.94-23.33-37.94-60.85-75.36-61.39-22.79-.23-45.24,12.79-56.34,31.2-7.97,15.81-12.5,34.11-7.77,51.15-4,4.63-8,11.25-9.3,12.87-7.24,10.31-8.73,27.85-5.12,39.67,1.58,4.16,4.28,7.8,6.91,11.43,3.76,5.31,6.33,11.36,11.01,16.07,11.24,10.79,26.19,17.2,39.55,25.36,10.8,5.72,22.77,8.99,34.59,12.32,8.9,2.73,17.08,7.07,25.91,9.99,7.78,2.87,16.04,3.97,23.97,6.33,6.37,2.03,12.74,4.28,18.95,6.85,1.93,7.11,2.39,15.92,12.33,13.71,3.64,1.57,7.94.17,10.45-2.6,8.72-9.08,17.23-18.32,25.65-27.65,23.61-25.1,42.64-53.4,62.28-81.2,9.31-12.68,20.09-24.3,29.38-36.99,14.09-17.28,19.4-39.31,20.1-60.69.08-2.68.04-5.32-.11-7.93,1.75-4.19,3.38-8.43,5.15-12.59,9.61-20.3-2.64-37.69-21.38-48.2ZM591.49,289.52c8.48,4.44,13.41,12.54,18.47,20.07-2.12-.21-4.27-.21-6.4-.24-5.69-.72-11.34-1.65-17.13-1.47-23.36-.64-31.58-1.8-52.49,10.33-1.62.99-3.18,2.05-4.69,3.18.82-2,1.76-4.09,2.86-6.33,9.24-18.08,38.25-34.78,59.39-25.54ZM628.85,471.57c-10.53-3.98-21.66-5.9-32.54-8.74-9.12-2.65-17.22-7.58-26.09-10.84-13.28-5.67-27.73-9.49-39.43-17.95-10.7-10.21-22.22-20.15-28.4-33.52-5.36-10.45-7.87-23.45-1.73-34.11,3.28-5.25,6.94-10.54,10.92-15.43.34.84.68,1.69,1.08,2.53,15.7,46.97,49.92,60,90.37,85.1,17.11,11.51,37.05,23.04,49.18,39.99-7.5-3.13-15.75-4.14-23.35-7.02ZM769.43,365.64c-16.03,22.27-36.78,40.99-56.74,60.12-14.99,14.28-28.35,29.85-41.92,45.29-9.97-19.69-29.25-33.56-48.73-44.65-15.21-9.23-29.99-19.13-45.98-27.18-16.98-8.02-35.59-17.28-43.44-34.47-5.8-13.34-8.48-21.88-6.8-31.96,1.63-1.59,3.35-3.11,5.15-4.54,3.94-3.26,7.66-6.8,12.32-9.18,6.42-2.95,13.63-3.65,20.46-5.42,10.89-2.64,22.24-2.43,33.16-.06,5.5,1.22,11.47.58,16.76,2.32,6.44,11.89,14.59,22.81,22.23,34.05,2.18,3.61,3.31,7.71,5.7,11.2,10.34,12.42,21.41-.56,21.2-12.03,6.08-30.32,21.99-58.84,48.04-78.28,15.86-10.9,36.36-12.21,55.39-11.51,24.99,3.48,29.56,12.79,29.13,34.98,1.17,25.95-11.55,49.86-25.92,71.32ZM819.91,257.36c-1.72,5.2-3.16,10.5-4.87,15.72-3.35-16.92-13.34-30.63-34.65-34.63-20.54-3.81-41.43.18-59.34,9.48,2.37-1.86,4.84-3.61,7.51-5.11,23.94-13.82,40.11-27.22,69.43-14.94,11.96,5.87,26.84,14.76,21.92,29.48Z"/>
  <g>
    <path d="M525.75,430.37l.67-.11c3.62-.59,3.92-1.09,1.26-17.43l-2.6-15.96c-2.67-16.41-3.16-17.08-6.78-16.5l-.89.14c-.59.1-.7-.57-.11-.67,2.07-.34,5.57-.75,8.23-1.19,7.76-1.26,26.05-4.47,28.49-4.87,1.4-.23,2.6-.35,3.23-.22.1.14,3.14,14.13,4.48,18.69l.95,3.49c.08.52-.64.71-.8.21l-1.02-3.47c-3.64-11.17-12.37-16.8-20.58-15.54l-5.91.96c-2.96.48-2.78.61-.76,13.02l1.98,12.19,3.25-.53c8.42-1.37,10.63-6.44,9.71-12.13l-.2-1.26c-.1-.59.72-.72.81-.13.49,3.94,1.23,9.89,1.62,12.25.4,2.44,1.76,9.42,2.46,12.8.08.52-.73.65-.81.13l-.23-1.4c-.97-5.99-4.78-10.75-13.21-9.38l-3.25.53,1.26,7.76c2.53,15.52,3.1,16.26,7.61,15.53l2.59-.42c.59-.1.7.57.11.67-.81.13-11.47,1.79-11.84,1.85-.44.07-8.78,1.51-9.59,1.64-.59.1-.7-.57-.11-.67Z"/>
    <path d="M569.94,423.18c4.21-.69,4.25-1.83,3.22-8.19l-3.09-18.99c-.91-5.62-1.62-5.73-5.18-4.31-.57.24-.88-.31-.32-.56,3.56-1.41,8.86-4.78,11.61-6.97.2-.18,1.36-.07,1.42.3l4.73,29.04c1.04,6.36,1.44,7.43,5.58,6.75.59-.1.7.57.11.67-2.14.35-7.71,1.1-8.82,1.28-1.11.18-7,1.29-9.14,1.64-.59.1-.7-.57-.11-.67ZM564.47,374.23c-.54-3.33,1.75-6.51,5.07-7.05,3.4-.55,6.5,1.75,7.05,5.07.53,3.25-1.69,6.42-5.09,6.97-3.33.54-6.5-1.75-7.03-5Z"/>
    <path d="M589.89,419.93c2.96-.48,3.82-.77,2.52-8.76l-2.88-17.66c-.35-2.14-2.36-3.79-4.31-5.06-.26-.19-.21-.34-.07-.44,1.25-.73,6.92-5,8.12-6.48.12-.17.2-.18.46,0,1.62,1.1,4.09,5.55,4.87,10.36l.28,1.7c-.04-4.92,1.11-8.07,2.59-10.21,1.3-2.26,3.17-3.85,6.34-4.37,2.07-.34,4.01-.05,4.23,1.28.26,1.63-1.31,6.89-3.97,7.32l-3.62.59c-2.51.41-3.94.95-4.65,2.2-.86,1.73-.62,4.58.17,9.46l2.92,17.96,5.25-.85c.59-.1.7.57.11.67-.59.1-7.93,1.14-9.11,1.33-1.11.18-7,1.29-9.14,1.64-.59.1-.7-.57-.11-.67Z"/>
    <path d="M619.7,414.32c-.38-.01-.58-.29-.68-.95-.18-1.11-.44-6.91-1.42-12.89-.08-.52.33-.74.43-.15.97,4.09,2.79,7.81,5.61,10.24,2.67,2.45,6.21,3.69,10.21,3.04,5.1-.83,7.7-3.98,7.01-8.2-.75-4.58-6.42-5.4-12.19-6.36-6.31-1.02-12.82-2.31-13.84-8.6-1.3-7.98,6.06-13.58,13.23-14.75,5.62-.91,8.72-.96,12.17-.77.47.08.64.2.69.49.34,2.07,1.12,8.77,1.74,12.54.1.59-.42.67-.59.1-.82-3.66-2.46-6.73-4.69-8.79-2.67-2.45-6.09-3.41-10.16-2.75-5.1.83-7.77,3.54-7.25,6.72.77,4.73,6.29,5.58,12.24,6.66,6.38,1.01,13.19,2.25,14.28,8.98,1.15,7.09-4.1,13.94-13.34,15.45-7.61,1.24-10.34.32-13.43-.01Z"/>
    <path d="M653.87,399.58l-3.55-21.8-5.62.91c-.07.01-.21-.35-.08-.52l12.12-14.11c.32-.36.6-.48.69.04l1.2,7.39,10.12-1.65c.89-.14,1.7-.28,1.71-.2.02.15-1.05,4.27-1.82,5.15l-9.39,1.53,3.15,19.36c.87,5.32,3.02,7.85,6.13,7.35,2.37-.38,4.23-2.43,5.62-7.44.21-.57,1.08-.33.81.32-2.32,5.76-6.29,12.63-12.13,13.58-5.54.9-7.82-2.83-8.97-9.92Z"/>
    <path d="M691.17,388.73c-2.29-14.04,5.99-24.26,17.15-26.08,2.73-.45,5.22-.09,7.38.62l-2.12-13.01c-1.03-6.36-2.22-6.16-5.8-4.9-.58.17-.69-.5-.11-.67,3.59-1.27,9.35-5.01,11.63-6.82.2-.18,1.5-.09,1.56.28l8.26,50.77c1.18,7.24,1.4,8.12,5.09,7.52.59-.1.7.57.11.67-4.51.73-9.94,1.85-12.29,2.76-.57.24-.91,0-1-.52-.07-.44-.07-3.25-.64-7.18-3.15,5.82-7.46,9.18-12.78,10.05-8.79,1.43-15.03-4.69-16.46-13.48ZM712.53,397.84c3.33-.54,5.81-2.99,7.72-6.64l-3.58-22.02c-2.21-2.83-6.03-5.84-10.32-5.15-6.36,1.04-8.42,6.98-6.47,18.96,1.55,9.53,6.08,15.93,12.66,14.86Z"/>
    <path d="M736.38,389.18c-.81-4.95,2.44-9.73,16.35-17.91l4.98-2.94c-1.61-9.45-3.85-12.5-8.36-11.76-2,.33-3.4,1.46-4.2,3.11-1.13,2.38-1.33,5.83-1.95,8.06-.45,1.89-1.73,2.86-4.62,3.33-3.03.49-4.51-.71-4.74-2.11-.28-1.7.62-3.67,2.52-5.49,3.32-3.35,9.34-6.91,14.15-7.69,8.5-1.38,14.7,1.32,16.29,11.08.73,4.51,1.56,11.88,2.16,15.58.59,3.62,1.26,5.41,2.66,5.18,1.33-.22,2.62-3.01,3.16-5.29.2-.64,1.37-.45.98.45-.76,1.87-4.52,9.08-9.47,9.89-3.55.58-5.39-.94-6.11-5.38-.25-1.55-.53-3.71-.65-4.9-1.2,4.29-5.57,12.36-12.59,13.5-5.47.89-9.84-2.19-10.57-6.7ZM752.12,389.88c4.22-.61,6.6-6.08,7.26-8.99-.26-2.08-.69-6.56-1.52-11.66l-.05-.3-4.74,3.05c-6.54,4.1-9.06,7.7-8.31,12.35.59,3.62,3.35,6.13,7.35,5.55Z"/>
    <path d="M778.17,379.34l-3.55-21.8-5.62.91c-.07.01-.21-.35-.08-.52l12.12-14.11c.32-.36.6-.48.69.04l1.2,7.39,10.12-1.65c.89-.14,1.7-.28,1.71-.2.02.15-1.05,4.27-1.82,5.15l-9.39,1.53,3.15,19.36c.87,5.32,3.02,7.85,6.13,7.35,2.36-.38,4.23-2.43,5.62-7.44.21-.57,1.08-.33.81.32-2.32,5.76-6.29,12.63-12.13,13.58-5.54.9-7.82-2.83-8.97-9.92Z"/>
    <path d="M797.12,369.43c-1.73-10.64,6.9-22.36,18.73-24.29,10.12-1.65,14.28,2.91,14.81,7.07.18,2.02-.34,3.02-5.15,3.8l-21.14,3.44c.03,1.13.15,2.33.36,3.58,1.56,9.61,9.43,14.62,19.12,13.05,8.57-1.4,13.52-8.27,14.99-18.83.05-.62.58-.62.47.08-1,7.83-4.46,16.43-9.72,21.38-3.1,2.86-6.44,4.69-11.02,5.44-11.31,1.84-19.71-4.08-21.44-14.72ZM804.37,359c5.68-1,9.72-1.81,13.24-2.53,1.38-.38,2.49-1.01,2.81-1.37.64-.71.77-1.79.57-3.05-.47-2.88-2.94-5.97-7.82-5.17-5.39.88-8.77,5.3-8.8,12.13Z"/>
  </g>
</svg>