<?xml version="1.0" encoding="UTF-8"?>
<svg id="Laag_2" data-name="Laag 2" xmlns="http://www.w3.org/2000/svg" xmlns:xlink="http://www.w3.org/1999/xlink" viewBox="0 0 1329.84 809.88">
  <defs>
    <style>
      .cls-1, .cls-2, .cls-3 {
        fill: none;
      }

      .cls-2 {
        stroke: #610f0c;
        stroke-width: 3.11px;
      }

      .cls-2, .cls-3 {
        stroke-miterlimit: 10;
      }

      .cls-4 {
        opacity: .25;
      }

      .cls-4, .cls-5 {
        fill: #610f0c;
      }

      .cls-3 {
        stroke: #000;
        stroke-width: .75px;
      }

      .cls-6 {
        clip-path: url(#clippath);
      }
    </style>
    <clipPath id="clippath">
      <path class="cls-1" d="M671.33,10.81c1.89-1.18,3.14-3.28,5.27-4.29,3.69-1.76,7.16-2.71,11.18-1.17,3.1,1.19,6.47,1.47,9.74,2.01,1.93.32,3.84.09,5.65-.96,1.29-.75,2.63-.88,3.88.23,1.74,1.55,3.47,1.55,5.34.17.62-.46,1.56-.66,2.31-.56,3.06.44,6.02.31,8.91-1.12,2.44-1.21,4.84-.99,7.14.59.23.16.52.23.75.39,1.96,1.39,4.31-.31,6.36,1.24,1.58,1.2,3.51,1.82,5.32,2.55.75.3,1.63.35,2.44.28,1.65-.15,3.28-.45,4.92-.7,2.75-.41,5.49-.5,8.19.38,3.24,1.06,6.42,1.5,9.74.08,1.17-.5,2.83-.33,4.03.21,2.88,1.3,5.73,2.21,8.83,1.49,5.07,1.33,10.32,1.46,15.36,2.95,1.38.41,2.6.67,3.99,0,2.8-1.36,5.76-1.83,8.82-2.11,2.97-.27,5.98-.96,8.46-3.35.72-.69,2.17-1,3.1-.71,6.28,1.93,12.66.63,18.98.92,1.98.09,3.83-.75,5.41-2.09,1.9-1.61,3.96-2.09,6.24-1.67,3.11.57,6.04.01,8.77-1.82.47-.32.97-.76,1.49-.81,5.46-.53,10.95-2,16.38-.55,2.76.73,5.37,1.14,8.15.64,1.63-.29,3.28-.41,4.92-.56,3.28-.31,6.56-.59,9.71-.87,6.66,7.41,7.17,7.63,16.47,6.93,1.35,1.18,2.72,2.81,4.39,3.77,3.46,2,7.1,3.03,11.12,3.14,7.06.2,13.64-1.83,20.13-4.45,2.18-.88,3.98-1.72,6.27-.44,2.06,1.15,4.3.62,6.47-.13,2.18-.76,4.28-.6,6.44.49,2.53,1.28,5.24,2.08,8.05,1.1,2.17-.76,3.62.35,5.12,1.97.73.79,1.92,1.31,2.95,1.42,3.02.33,6.07.47,9.07-.35,4.57-1.24,8.71-.09,12.51,2.95.89.71,1.88,1.27,2.79,1.87,2.02-.51,3.9-.98,5.97-1.5,4.6,2.77,9.79,3.51,14.97,4.32,2.43.38,4.93.08,7.27,1.49,1.14.69,2.69.64,4.07.66,5.22.09,10.42.41,15.6,1.15,3.32.48,6.55.51,9.65-1.45.8-.51,2.25-.28,3.19.19,2.77,1.38,5.71,2.53,7.97,4.9,2.32,2.44,5.07,3.9,8.03,4.55,5,1.09,8.91,4.92,13.66,6.62,1.21.43,2.04,2.09,3.19,2.93.89.65,2.03,1.31,3.02,1.23,2.08-.16,3.75.53,5.37,1.91,1.32,1.13,2.77,2.06,4.21,2.96,2.04,1.26,4.12,1.5,6.37.48,1.24-.56,2.64-.75,3.99-.92,1.09-.14,2.27.29,3.3-.02,3.81-1.16,7.57-1.39,11.39-.13.77.26,1.67.32,2.46.14,4.61-1.05,9.28-1.38,13.95-1.44,2.68-.03,4.86-1.3,6.91-2.84,1.44-1.09,2.82-1.64,4.53-1.89,3-.45,6-1.13,8.89-2.12,2.7-.92,5.32-1.43,8.14-1.01,1.31.19,2.82-.01,4.05-.58,3.47-1.59,7.05-1.48,10.6-1.03,2.27.29,4.38.07,6.52-.65,6.38-2.13,12.9-3.3,19.53-4.01,6.29-.68,12.56-1.85,18.61-4.14.5-.19,1.15-.5,1.54-.29,2.09,1.09,4.11,1,6.38.64,2.17-.35,4.34-.54,6.5-1.12,1.29-.34,2.88-.43,4.07.12,3.47,1.62,7.06,1.24,10.63,1.34,2.21.06,4.47.45,6.62.04,3.51-.67,6.59.33,9.5,2.29,1.89,1.27,3.69,1.05,5.54.15,1.77-.87,3.6-1.68,5.23-2.82,1.76-1.23,3.61-1.34,5.56-1.43,2.22-.1,3.7,1.02,4.6,3.22,1.06,2.61,1.8,5.31,1.13,8.21-.72,3.14-.37,6.24.18,9.34,1.11,6.24.86,12.46-.07,18.71-.55,3.7-1.05,7.44-1.21,11.18-.12,2.64-.62,4.89-2.16,6.91-.95,1.25-1.13,2.82-.52,4.42.11.29.2.59.32.87,3.05,6.75,3.62,13.73,1.51,20.96-.09.3-.18.61-.19.91-.02.62-.14,1.32.05,1.86,1.51,4.25-.42,8.8.92,13.05,1.33,4.22,1.51,8.57.91,12.96-.32,2.29.08,4.35,1.07,6.34.4.81.93,1.76.87,2.6-.27,4.15.51,8.07,1.57,11.97.08.29.08.65,0,.94-1.41,4.91-.45,9.99-.92,14.95-.29,3.08-1.26,6.09-1.96,9.12-.42,1.81-1.05,3.58-1.33,5.42-.24,1.52-.49,3.26-.07,4.64,1.11,3.59-.2,6.01-2.29,8.37-1.27,1.44-1.77,3.49-.81,5.19,1.66,2.91,1.16,5.29-.62,7.71-.34.47-.53,1.09-.78,1.64-.43,9.1-.6,18.22-2.33,27.16-.49,2.53-.36,4.97.65,7.36,1.12,2.65,1.42,5.41.28,8.19.2,3.77-.03,7.56-.91,11.16-1.7,7-2.02,14.19-2.91,21.31-.43,3.44-.81,6.84-.36,10.19.75,5.6,1.49,11.13,1.15,16.85-.13,2.09.7,4.29,1.26,6.38,1.06,3.97,1.58,7.97.8,12.07-1.21,6.38-.59,12.4,2.41,18.08.69,1.3.99,2.9,1.34,4.41.49,2.12.88,4.28,1.27,6.42.47,2.55,1.59,4.65,3.2,6.47,1.96,2.21,3.99,4.38,5.74,6.8,1.56,2.16,2.61,4.81,4.22,6.91,1.77,2.3,2.58,4.82,2.38,7.75-.21,3.08.27,6.21-1.24,9.19-1.28,2.53-.37,5.55-.39,8.35,0,1.27.26,2.63-.43,3.62-2.34,3.3-1.74,7.22-1.72,10.89,0,3.19-.19,6.19-1.04,9.25-1.36,4.89-1.53,9.85.03,14.81.45,1.44.58,3.05.62,4.6.06,2.49-.34,5.03-.04,7.46.3,2.45,1.25,4.79,1.88,7.19.64,2.48.79,4.96-.26,7.35-.9,2.04-.99,4.19-.96,6.43.03,2.82-.06,5.65-.24,8.47-.1,1.54-.44,3.06-.78,4.57-.27,1.21-.92,2.36-1.01,3.57-.23,3.12.01,6.32-.41,9.39-.43,3.07-1.79,5.95-1.71,9.17.07,2.51.03,5.03.23,7.53.48,5.95.66,11.8-.63,17.74-.78,3.6-.43,7.51-.75,11.26-.32,3.74-1.07,7.45.19,11.15.19.57.31,1.24.27,1.85-.57,8.46.22,16.97-.67,25.43-.27,2.56-.99,4.9-1.99,7.15-2.11,4.78-3.77,9.73-5.26,14.81-2.55,8.67-4.16,17.55-5.42,26.54-.56,4.03-1.11,8.06-1.76,12.07-.5,3.11-.78,6.16-.39,9.35.88,7.28.29,14.41-2.29,21.25-.42,1.12-.76,2.44-.68,3.62.16,2.44,1.2,4.66.23,7.35-.69,1.9-.25,4.33-.33,6.52-.1,2.51-.2,5.02-.35,7.53-.06.93-.13,1.9-.42,2.75-2.29,6.88-3.03,13.96-2.31,21.25.32,3.18.08,6.33-.8,9.33-1.42,4.87-1.7,9.83-1.49,14.88.05,1.25.1,2.52,0,3.77-.38,4.94-4.16,9.63-8.6,9.84-6.03.29-11.15,3.21-16.36,6.13-2.32,1.3-3.62,3.84-5.56,5.58-.91.81-1.96,1.26-3.08.81-2.63-1.07-5.34-1.54-8.11-1.65-1.45-.06-2.54-.82-3.56-2.02-.72-.85-1.78-1.54-2.79-1.82-2.4-.67-4.82-1.11-7.37-.66-4.06.72-8.19.74-11.97,3.07-1.94,1.19-4.2,1.29-6.44.34-3.49-1.5-6.96-1.27-10.54.03-3.13,1.14-6.45,1.62-9.69,2.39-1.17.28-2.29-.03-3-1.03-.91-1.3-1.95-2.04-3.36-2.48-1.58-.49-3.13-1.25-4.56-2.15-3.87-2.44-7.75-4.76-12.11-5.95-1.84-.5-3.64-1.51-5.29-2.62-2.96-2.02-6.19-2.78-9.52-2.69-3.29.08-6.62.44-9.86,1.14-4.07.87-8.08,2.03-12.26,1.61-4.7,1.75-9.75,1.11-14.48,3.24-3.78,1.7-8.06,1.9-11.94,3.63-.99.44-2.23.62-3.26.39-2.93-.66-5.49.61-7.98,1.84-3.76,1.86-7.97,2.71-11.06,6.17-1.02,1.15-2.47,1.35-3.87,1.34-1.66-.02-3.31-.15-4.97-.16-1.73-.02-3.03.82-4.36,2.2-5.35,5.6-11.68,6.52-18.48,4.36-2.38-.76-4.66-1.73-6.72-3.51-2.02-1.74-4.55-2.16-7.12-1.8-1.92.27-3.84.55-5.77.67-4.2.26-8.16,1.33-11.88,3.65-2.94,1.83-6.02,2.91-9.53,2.33-1.52-.25-3.3.41-4.78,1.13-2.27,1.11-4.39,2.62-6.58,3.96-1.51.92-2.79.54-3.18-1.4-.78-3.84-2.9-6.02-6.04-6.98-1.91-.59-3.57-1.53-5.19-2.8-5.67-4.47-11.42-8.83-17.12-13.26-1.18-.92-2.45-1.34-3.86-1.46-3.85-.32-7.71-.62-11.55-1.11-3.3-.42-6.57,1.12-9.86.05-5.65,1.67-11.56.84-17.24,2.28-1.88.47-3.84.59-5.68,1.21-2.21.74-4.25.59-6.49.03-2.39-.6-4.93-.46-7.4-.53-2.02-.06-3.76,1.03-5.39,2.2-4.27,3.06-8.97,3.29-13.54,1.93-4.98-1.48-9.86-.51-14.78-.4-.77.02-1.5.8-2.29.96-3.22.66-6.15,2.38-9.52,2.72-2.65.26-5.23,1.82-7.76,3.04-2.06.99-4.14,1.69-6.37,1.95-2.31.28-4.35-.16-6.16-1.98-1.01-1.01-2.17-2.15-3.41-2.48-2.22-.59-4.12-1.74-5.94-3.18-1.49-1.18-3.1-1.13-4.74-.47-.78.32-1.65.47-2.34.96-4.83,3.41-10.47,3.84-15.75,5.59-1.3.43-2.74.43-4.11.41-3.31-.04-6.63-.12-9.94-.36-3.83-.28-7.06,1.03-9.74,4.15-.58.67-1.19,1.31-1.77,1.99-2.26,2.61-4.97,3.79-8.2,3.71-4.74-.12-9.33-.84-13.66-3.2-1.48-.81-3.03-1.77-4.61-1.94-3.87-.42-6.71-2.38-8.89-5.99-.57-.94-1.72-1.69-2.73-1.98-2.93-.87-5.92-1.53-8.91-2.16-2.53-.53-4.92-.17-7.04,1.74-1.86,1.68-4.14,1.99-6.32,1.38-6.25-1.73-12.09.17-17.74,2.65-4.1,1.8-8.02,2.39-12.07.59-2.81-1.25-5.37-.97-7.97.53-.49.28-1.09.3-1.56.61-4.4,2.89-9.21,4.01-14.21,4.44-1.35.12-2.71.6-3.97,1.18-3.33,1.51-6.6,3.19-9.91,4.72-1,.46-2.15,1.08-3.13.9-2.9-.55-5.42.21-7.93,1.83-1.43.92-3.16,1.21-4.6,2.11-2.81,1.75-5.77,1.9-8.85,1.74-2.83-.15-5.38-1.03-7.78-2.78-3.95-2.88-7.85-5.82-12.04-8.3-2.28-1.35-4.43-2.12-6.97-2.39-4.18-.45-8.3,1-12.39.43-4.06-.56-7.83-2.8-12-3.27-3.05-.35-6.02-.55-9.03.22-1.42.37-2.85-.11-3.89-1.15-3.5-3.5-7.1-6.92-10.28-10.78-2.82-3.44-6.1-4.4-9.72-3.14-2.18.76-4.26.96-6.47,1.06-2.47.11-4.92.69-7.38,1.1-2.21.36-4.38.5-6.53-.44-2.73-1.19-5.48-.91-8.03.55-2.95,1.68-5.85,1.39-8.85.38-1.85-.63-3.74-1.12-5.64-1.53-1.06-.23-2.37-.62-3.24-.15-2.98,1.63-5.16.11-7.52-1.66-1.43-1.07-3.32-1.11-4.67.25-1.97,1.98-4.19,2.66-6.73,3.14-2.96.55-5.87,1.72-8.69,2.94-1.93.84-3.67,1.21-5.54.04-.48-.3-1.02-.48-1.55-.64-1.94-.61-3.79-.57-5.55.76-1.15.87-2.33,1.7-3.57,2.37-.72.39-1.62.68-2.38.56-4.89-.79-9.97-.38-14.6-2.9-1.48-.81-3.11-1.34-4.48-2.33-4.88-3.54-10.33-4.62-15.88-4.08-3.64.35-7.2.4-10.63-.69-3.81-1.21-7.7-.64-11.51-1.32-1.01-.18-2.24.17-3.17.72-5.48,3.23-11.64,3.9-17.4,6.07-3.19,1.21-6.59.57-9.88.26-1.02-.1-2.11-.82-2.93-1.58-2.23-2.04-4.76-3.05-7.52-3.67-4.33-.97-8.6-2.22-12.92-3.27-3.29-.8-6.59-.37-9.9.03-2.14.26-4.37,1.22-6.44-.42-8.87-.64-17.66-.64-25.88,4.07-1.23.71-2.56,1.22-3.75,2-2.02,1.32-4.18,1.67-6.4,1.32-4.64-.74-9.27-1.54-13.89-2.47-1.04-.21-2.09-.9-2.94-1.65-1.89-1.68-4.03-2.03-6.27-1.77-3.01.35-6,.88-9.22,1.37-.81-.47-1.79-1.01-2.76-1.6-1.51-.93-3.08-1.38-4.77-.78-4.9,1.75-9.77,1.36-14.66-.13-2.68-.82-5.28-1.2-8.07.08-2.79,1.28-5.8,2.34-8.77,2.59-3.07.26-5.95,1.06-8.9,1.8-2.43.61-4.93.5-7.33-.65-1.78-.85-3.8-1.22-5.39-2.38-3.96-2.9-8.3-4.84-12.47-7.21-5.97-3.4-12.32-5.29-18.63-7.43-.76-.26-1.64-.16-2.46-.12-4.48.23-8.8-.84-12.98-2.48-4.19-1.64-8.37-3.04-12.75-3.96-3.21-.67-6.32-1.99-9.63-2.43-1.57-.21-3.12-1.23-4.52-2.18-1.67-1.12-3.25-2.29-5.2-2.79-1.01-.26-1.92-1.17-2.82-1.86-1.6-1.22-3.14-2.54-4.75-3.74-1.67-1.24-3.51-1.84-5.52-1.4-3.34.73-6.47-.02-9.73-1.09-4.21-1.38-8.62-2.05-12.97-2.73-2.22-.34-4.33-.91-6.4-1.82-3.61-1.59-7.27-2.81-11.25-2.47-1.33.11-2.72-.41-4.06-.76-4.42-1.16-8.7-1.04-12.98.96-1.73.81-3.56,2.17-5.53,1.4-2.22-.86-4.32-.67-6.49-.02-4.92,1.49-9.89.06-14.84.32-3.09-1.3-6.34-2.28-9.24-3.99-2.69-1.58-5.26-1.9-7.96-.79-1.96.8-3.73.67-5.61-.16-1.33-.59-2.36-1.4-3.19-2.78-1.79-2.97-2.65-6.13-2.23-9.75.25-2.16.29-4.35.59-6.49.23-1.63-.04-3.03-.62-4.53-.42-1.08-.59-2.48-.38-3.63,1.51-8.49.4-16.95-.39-25.34-.62-6.65-.65-13.11.67-19.63.98-4.86,1.28-9.85,2.54-14.71.99-3.83.89-8.07.95-12.14.04-2.56.31-5.04,1.04-7.4,1.86-5.96,1.65-12.38,3.28-18.38-.26-3.36-.07-6.78-.53-10.08-.32-2.28-.67-4.37.53-6.3,1.71-2.76,2.12-5.9,1.65-9.01-.5-3.35.26-6.14,1.59-8.98,2.23-4.75,3.59-9.82,3.89-15.23.05-.93.13-1.91.43-2.76,1.08-3.07.79-6.15.33-9.29-.31-2.16-.34-4.37-.62-6.54-.11-.89-.33-2.03-.87-2.54-2.51-2.38-2.36-5.35-1.98-8.6.39-3.38.37-6.92,1.81-9.93,2.21-4.63,2.26-9.6,2.43-14.59.09-2.83.15-5.65.21-8.48.05-2.21.26-4.34.96-6.46.46-1.4.5-3.06.45-4.59-.23-6.64.45-13.2,2.05-19.51.96-3.79,1.52-7.26.29-11.01-.49-1.5-.47-3.12.23-4.57,1.01-2.1.74-4.29.4-6.45-.34-2.16-.52-4.52-1.43-6.36-1.74-3.53-1.73-7.21-1.6-10.98.21-6.28.5-12.56.71-18.84.07-1.93.43-3.65,1.58-5.19,1.99-2.69,3.33-5.7,3.53-9.36.1-1.89.3-3.69-.15-5.58-.72-3.02-1.08-6.17-1.88-9.16-.9-3.36.26-6.85-.74-10.19-.13-.42.33-1.16.65-1.65,1.31-2.04,1.03-4.02.18-6.2-.67-1.69-.95-3.58-1.36-5.2.86-2.21,1.44-4.32,2.43-6.15,1.9-3.48,2.04-7.12,1.11-10.87-.39-1.57-.57-2.89.05-4.47.55-1.41.54-3.09,1-4.55,1.26-3.99,1.16-7.77.13-11.95-1.99-8.08-1.77-16.16,2.03-23.75.67-1.35,1.28-2.82,1.58-4.32,1.47-7.35,2.97-14.68,5.17-21.81.56-1.82.49-3.63-.13-5.51-1.26-3.81-2.17-7.78-3.55-11.53-1.39-3.75-3.42-7.19-4.16-11.26-2.65-3.54-3.13-7.77-3.49-12.25-.25-3.08-.71-6.19-1.11-9.28-.88-6.82-2.01-13.54-4.08-20.12-2.23-7.07-4.49-14.16-6.29-21.43-1.12-4.54-.43-8.62.39-12.87,2.39-3.28,1.64-7.14,1.51-10.86-.03-.92-.29-1.86-.57-2.74-.64-2.06.06-3.83,1.15-5.23,1.86-2.36,3.49-4.83,4.6-7.76.9-2.39,1.49-4.73.18-7.2-.94-1.79-.67-3.62.05-5.42.23-.57.48-1.13.72-1.7.95-2.26,2.18-4.43,2.78-6.8.6-2.38.57-4.96.81-7.46.03-.31,0-.66.1-.93,2.29-5.78,1.73-11.51.36-17.49-.73-3.22.5-6.84-.43-10.23.32-7.87,1.09-15.64,3.42-23.13.79-2.55,2.08-4.35,4.52-4.96,1.88-.47,3.68-.96,5.67-.92,4.1.09,8.27.32,12.19-1.66,1.09-.55,2.17-.14,3.19.35,4.84,2.34,10.1,2.74,15.14,4.14,1.32.37,2.74.63,4.08.48,2.54-.29,4.9.1,7.32.97,1.52.55,3.26.25,4.9.42,1.35.14,2.85.04,4.02.67,4.11,2.23,8.05,1.48,11.99-.41.76-.36,1.52-.78,2.21-1.29,1.51-1.11,3.14-1.03,4.8-.8.82.12,1.67.21,2.43.54,1.62.7,3.17.81,4.82.07.74-.33,1.7-.6,2.42-.36,5.27,1.79,10.41-.56,15.62-.56,1.55,0,3.31-.76,4.62-1.77,4.41-3.43,9.52-4.59,14.45-6.39.6-.22,1.02-.37,1.52.09,1.78,1.6,3.67,1.35,5.36,0,3.5-2.81,7.72-3.21,11.63-4.49,4.05-1.32,7.82-2.78,10.98-6.05.99-1.03,2.29-1.72,3.51-2.4,1.25-.69,2.58-.97,4-.48,4.57,1.57,9.23,1.71,13.94,1.04,1.12-.16,2.19-.4,3.05-1.26,1.49-1.5,3.19-2.16,5.15-2.68,2.93-.77,5.87-1.92,8.5-3.56,2.83-1.76,5.68-2.39,8.72-1.78,2.55.51,4.88.2,7.27-.9,3.32-1.53,7.15-.69,10.42-2.75.64-.4,1.63-.18,2.45-.11,5.19.43,10.48-.35,15.54,1.66,3.58,0,7.18.23,10.75-.05,3.09-.24,6.01-.18,8.91,1.26,1.8.89,3.7.58,5.64-.13,2.88-1.05,5.86-1.72,8.95-1.13.8.15,1.65.06,2.48.01,1.85-.11,3.39-2.07,5.53-.89,1.45.8,3.29.69,4.71,1.54,3.55,2.11,7.47,2.32,11.25,2.81,3.89.5,7.63,1.19,11.19,3.03,2.14,1.1,4.17.96,6.38-.06,2.59-1.19,5.08-2.43,7.14-5.05,1.5.73,2.96,1.45,4.43,2.13,1.28.6,2.54,1.27,3.86,1.7,2.11.69,4.2,1.48,6.5.94,1.38-.32,2.78-.45,3.72-1.74,1.57-2.18,3.69-2.49,5.94-2.73,1.46-.16,2.71.02,3.86,1.09,1.06.98,1.94,2.26,3.52,2.72,1.14-.49,2.49-.89,3.67-1.62,5.16-3.19,10.61-3.32,16.05-1.59,2.53.8,4.88.57,7.33.21,1.64-.24,3.33-.39,4.89-.97,2.19-.81,4.35-1.01,6.5-.22,1.91.7,3.76.86,5.68.21,2.51-.85,4.94-.37,7.26.84,1.76.91,3.55,1.57,5.43,2.12,2.49.74,4.77,1.12,7.22-.18,1.51-.8,3.03-.42,4.71.36,3.9,1.79,10.02,1.89,13.75.46,3.19-1.23,6.42-1.72,9.76-1.69,1.37.01,2.74-.02,4.11-.12,1.92-.14,3.43-1.91,5.44-1.79,1.64.1,3.29.11,4.94.14,3.57.05,6.91-1.62,10.59-1.5,3.51.11,7.13-.87,10.5-2.41,1.21-.55,2.27-.1,3.07.7,1.43,1.44,2.67,3.14,4.12,4.9,5.5-.85,10.99-.93,16.47-1.16,2.19-.09,4.41-.5,6.52-1.18,3.21-1.04,6.38-1.49,9.75-1.35,3.01.13,6.27-.49,8.43-3.06,2.82-3.34,6.37-3.18,9.84-3.73,3.56,1.31,6.44-.55,9.29-2.58.46-.33,1-.53,1.83-.95,1.55.58,3.31,1.47,5.16,1.87,1.68.37,3.11,1.2,4.61,1.99.96.51,2.07.74,3.14.88,3,.39,6,.78,9.01.94,1.34.07,2.97.04,4.02-.74,2.62-1.94,5.18-1.67,7.91-.73.5.17,1.08.02,1.7.02q5.75-4.97,12.31-6.71c2.05.95,4.05,1.96,6.1,2.78,1.02.41,2.18.79,3.22.66,5.7-.72,10.89.52,15.68,4.27,1.03.81,2.69,1.06,3.97.86,3.55-.56,7.06-1.42,10.56-2.31,2.11-.54,3.78-.12,5.16,1.86.29.42.96.49,1.48.73Z"/>
    </clipPath>
  </defs>
  <g class="cls-6">
    <g>
      <path class="cls-3" d="M1635.71,481.5l125.37-22.2s70.19-6.6,109.8-8.4c39.57-1.8,97.77,7.79,97.77,7.79l58.16,9.59,90.6,22.8,142.16,36.58,245.98,61.9v-49.1l-309.7-75.39s-124.89-31.18-157.22-40.09c-32.34-8.92-66.9-11.15-66.9-11.15l-91.45-8.09-58.26,3.91c-35.38,0-85.86,6.69-85.86,6.69,0,0-63.54,13.1-124.88,22.56-61.31,9.5-70.23,13.68-70.23,13.68,0,0-222.74,66.9-234.98,70.5-12.28,3.64-42.38,12-42.38,12l-127.39,7.51s-129.07,5.32-158.62,7c-29.53,1.65-64.95-3.64-64.95-3.64l-99.23-36.79-143.27-60.21s-107.87-45.71-122.1-52.98c-14.2-7.27-82.23-33.98-82.23-33.98-12.55-1.41-4.18-13.1-4.18-13.1l22.56-27.33c20.37-16.73,50.75-65.8,50.75-65.8l35.69-59.08,18.11-26.75,24.24-37.37s20.64-31.21,30.11-41.25c9.49-10.05,20.37-4.46,20.37-4.46l236.36,74.13s88.09,25.93,108.15,30.97c20.09,5,14.23,15.05,14.23,15.05l-19.24,68.27s-14.5,42.11-17.28,57.71c-2.78,15.6-14.78,10.6-14.78,10.6l-14.47-4.46-81.41-25.65s-21.19-7.24-22.87,5.86c-1.68,13.1,3.64,16.73,3.64,16.73l40.15,12.83,60.49,15.6c23.39,2.78,15.05,24.52,15.05,24.52-6.14,28.7-45.47,13.65-45.47,13.65l-7.42-2.41-68.21-20.89s-75.57-24.58-102.62-35.02c-27.02-10.47-82.35-31.36-82.35-31.36,0,0-10.5,1.47-8.49,7.79,2.05,6.32,12.15,10.62,12.15,10.62l87.79,31.88,48.3,17.95,68.83,20.25,39.47,12.86c5.78,1.89,11.69,3.29,17.7,4.2l13.11,1.99c49.77,7.79,52.7-26.5,52.7-26.5l16.16-64.95,18.96-57.68s9.19-42.38,14.23-54.93c5.01-12.54,11.97-9.74,11.97-9.74l140.79,36.8,190.92,37.07s23.97,5.55,60.77,10.32c36.82,4.73,47.69-10.32,47.69-10.32,0,0,20.33-24.25,28.98-32.89,8.64-8.64,26.47-4.76,26.47-4.76,0,0,11.14,2.53,31.24,6.41,20.06,3.91,90.59,17.01,90.59,17.01,40.12,10.87,49.34-24.52,49.34-24.52,0,0,16.7-35.12,17.56-47.67.82-12.54,12.27-11.72,12.27-11.72l151.91,37.37,76.36,18.93c37.65-.27,39.06-24.51,39.06-24.51l9.46-39.03,26.2-113.46,23.14-98.96s5.86-32.88,8.09-39.3c2.23-6.41,12.25-4.18,12.25-4.18l26.5,5.04s64.67,12.24,68.55,12.24,14.5,2.81,17.59-9.19c3.05-12-10.05-15.6-10.05-15.6l-39.02-8.64s-49.07-8.92-58.53-9.77c-9.5-.83-7.91-12.4-7.91-12.4l4.91-32.24,38.97-153.62,20.15-64.91s20.15-66.29,23.75-81.53c3.57-15.23,0-34.47.89-44.79.88-10.29,6.71-24.18,6.71-24.18l-8.06-2.23c-.45,6.26-10.74,38.96-18.35,51.05-7.63,12.09-13.43,36.73-13.43,36.73,0,0-16.58,54.26-20.15,71.91-3.61,17.65-17.96,11.02-17.96,11.02l-14.9-3.02-175.72-41.65-99.88-21.8-237.52-57.1s-185.95-40.58-196.45-45.8c-10.47-5.25-7.72-11.05-7.72-11.05l2.77-11.85,18.75-91.87-26.2-6.08-3.87,22.35-16.55,86.62s-13.8,57.96-15.45,68.7c-1.65,10.75-9.65,7.73-9.65,7.73l-25.93-6.63-67.6-16.55-58.5-12.7s-28.95-7.72-33.65-11.57c-4.67-3.88-4.4-8.27-4.4-8.27l3.03-16.28s13.25-72.58,14.35-81.95c1.1-9.37-1.1-32.82-1.1-40.55s17.65-35.02,17.65-35.02l-9.92-3.06-16.86,32.28-15.15,36.43-17.4,99.6s-6.04,22.62,10.5,34.19c16.55,11.61,29.23,13.53,29.23,13.53l103.2,25.37s50.75,11.61,64,14.63,8,13.8,8,13.8l-1.92,7.18-22.36,94.56-41.28,149.64,26.93,6.26s19.06-77.37,23.12-87.02c4.03-9.65,15.69-6.07,15.69-6.07l134.59,36.12s69.1,17.28,79.42,20.18c10.32,2.93,6.51,14.6,6.51,14.6l-37.23,155.23-26.47,108.15-28.06,110.59s-12.33,57.44-15.91,67.3c-3.6,9.86-11.69,6.04-11.69,6.04l-43.72-8.94-91.55-17.53s-74.25-14.78-81.89-16.36c-7.6-1.56-5.58-8.74-5.58-8.74l80.12-366.46-32.7-8.22-171.33-43.26-7.97,24.76,126.69,31.88,48.94,12.82c5.99,3.97,2.87,9.96,2.87,9.96l-19.66,91.08-29.9,145.19s-19.63,85.37-21.89,96.48c-2.29,11.09-12.82,5.41-12.82,5.41,0,0-231.42-65.19-237.4-66.9-5.99-1.71-3.12-11.39-3.12-11.39l20.49-104.18,5.99-31.3,8.52-42.72.85-3.39c3.7-5.98,12.52-3.14,12.52-3.14,0,0,76.88,17.92,82.29,17.37,5.4-.58,10.23-3.42,11.94-11.66,1.71-8.28-7.97-13.1-7.97-13.1,0,0-54.93-14.53-83.12-17.95-28.18-3.39-36.73,10.53-36.73,10.53l-5.1,18.5-21.65,105.35s-11.66,60.06-13.37,70.01c-1.71,9.95-10.81,5.98-10.81,5.98l-133.8-39.29s-84.67-28.37-93.03-31.45c-8.37-3.12-3.79-11.76-3.79-11.76l3.12-6.65,98.41-166.35-22.29-10.35L667.7-1.36l-46.75,81-42.41,58.72-48.37,48.36-41.86,34.26-3.51,3.57-83-58s-22.51-23.97-30.87-36.68c-8.35-12.71-41.03-66.45-41.03-66.45,0,0-.57-4.66-10.33-7.01-9.76-2.34-2.34,13.27-2.34,13.27l43.33,73.78,14.24,18.54s25.96,22.83,48.21,40.2c18.37,14.35,41.54,30.21,49.05,35.29l-51.72,52.53-36.94,36.43-10.35,4.88h-17.92l-12.52-3.81-95.67-40.22-63.6-15.75-50.56-21.77L-195,110.63s-130.56-59.11-142.47-61.98c-11.94-2.87-7.02-13.59-7.02-13.59,0,0,9.46-18.5,17.31-26.32,7.81-7.84,154.32-90.56,154.32-90.56,0,0,288.88-148.97,299.99-152.67,11.11-3.69,17.28,4.95,17.28,4.95,0,0,70.78,139.9,72.43,144.85,1.65,4.95,16.45,20.98,24.27,12.76,7.82-8.24,6.17-16.45,6.17-16.45l-14.38-27.58s-62.14-116.05-67.91-127.57c-5.77-11.54,5.35-14.83,5.35-14.83l30.86-15.21,247.75-141.16s153.89-91.78,188.06-111.11c34.17-19.36,65.83-5.77,65.83-5.77l22.66,6.17s96.7,26.74,128.39,34.99c31.7,8.24,19.33,26.35,19.33,26.35,0,0-29.62,86.81-35.39,113.55-5.77,26.75-41.55,118.93-41.55,118.93l-46.94,93.01,23.49,9.46,39.08-71.17s75.29-216.06,90.13-264.21c14.81-48.15,19.33-79.02,19.33-79.02l55.57-254.71h-27.17s-53.1,228.79-58.02,262.13c-4.94,33.34-18.53,24.7-18.53,24.7l-58.44-17.71s-100.4-31.69-117.68-34.16c-17.28-2.45-16.06-11.91-16.06-11.91,0,0,1.65-29.22,2.47-47.33.83-18.11-29.61-31.69-29.61-31.69l-36.64-11.55s-127.57-27.57-136.21-29.61c-8.64-2.05-20.19,1.65-19.36,10.68.82,9.07,13.19,12.37,13.19,12.37l37.43,8.64s90.53,19.33,120.18,27.97c29.62,8.64,25.1,24.3,25.1,24.3l-2.47,44.86-49.8,27.57-153.1,91.36s-104.52,56.36-111.94,65.83c-7.38,9.46-44.02,25.1-50.59,23.87-6.59-1.25-19.36-14.8-23.48-26.35-4.09-11.51-12.73-36.61-12.73-36.61l-49.8-90.53L45.63-798.26l-30.44,1.89,7.42,13.31,64.61,116.89,58.41,108.24,59.27,100.39,44.46,90.96c23.05,25.93,9.86,31.27,9.86,31.27,0,0-134.96,74.08-154.72,84.79-19.75,10.69-21.83-.82-21.83-.82l-25.92-48.58L-16.9-441.08l-80.24-144.42s-54.75-99.21-64.21-119.76c-9.47-20.58.42-21,.42-21l103.7-72h-44.86l-70.77,50.2-32.52-50.2h-13.16l36.61,57.19s-25.92,20.58-53.07,36.21c-27.17,15.63-29.65.43-29.65.43l-53.1-93.83h-28.36s37.83,72.42,55.14,94.62c17.28,22.23,4.92,30.87,4.92,30.87,0,0-46.08,30.47-62.14,41.99-16.03,11.51-20.58-1.23-20.58-1.23l-9.46-17.28-27.97-48.58s-13.19-17.28-21.83-12.76c-8.65,4.55-5.74,16.06-5.74,16.06,0,0,30.87,51.85,39.9,69.56,9.07,17.68-2.04,23.84-2.04,23.84l-19.76,11.12s-84.79,43.63-99.99,58.44c-15.24,14.81-84.37,56.79-84.37,56.79l-61.31,48.98s-.83,11.33-1.47,19.14c7.15-19.26,76.22-61.64,89.92-72.24,14.42-11.11,39.12-18.11,60.1-26.75,20.97-8.64,42.8-23.02,42.8-23.02,0,0,62.14-35.42,81.07-48.58,18.93-13.16,23.45,5.34,23.45,5.34l13.98,25.53,72.03,132.52,62.14,112.76s42.81,85.58,69.95,125.49c27.18,39.94,13.59,45.28,13.59,45.28,0,0-156.79,88.89-181.06,100-24.28,11.11-38.69,32.09-49.38,48.55-10.72,16.49-18.14,10.72-18.14,10.72l-145.67-61.74-62.96-33.74-133.34-82.72s-97.53-66.26-118.5-75.72c-21.01-9.47-46.11-31.7-46.11-31.7l-27.14-29.61c-15.24-9.9-1.65-18.93-1.65-18.93,0,0,139.08-154.75,148.15-167.48,9.03-12.76,20.97-.83,20.97-.83l69.16,63.36,14.81-16.46-137.86-123.87s-87.26-73.65-95.08-84.37c-7.82-10.68,1.25-14.81,1.25-14.81l22.63-22.22,122.62-126.32h-35.79s-113.58,119.75-133.73,137.86c-20.19,18.1-2.48,37.04-2.48,37.04l11.94,11.11,51.85,45.25s39.51,32.92,60.88,51.45c21.41,18.5,8.25,26.75,8.25,26.75,0,0-128,142.38-141.98,162.13-13.99,19.76-22.63,3.7-22.63,3.7l-20.98-21.38-123.05-111.11s-64.61-59.27-73.25-67.51c-8.64-8.21.83-15.21.83-15.21l19.75-22.22,220.97-235.97h-37.03l-87.67,92.34s-17.67,20.15-28.39,32.51c-10.69,12.34-18.5,4.92-18.5,4.92,0,0-40.34-37.04-53.93-50.59-13.55-13.59-27.57-4.95-27.57-4.95l-34.14,14.81s-15.23,11.94-8.64,20.58c6.57,8.64,18.11,2.87,18.11,2.87,0,0,10.69-7.39,23.45-13.16,12.76-5.77,12.76-.4,12.76-.4,0,0,27.97,27.15,45.68,41.56,17.68,14.41,9.04,19.75,9.04,19.75,0,0-60.92,65.44-74.47,79.02-13.59,13.56-18.54,3.27-18.54,3.27l-14.41-11.11-114.81-84.77s-71.99-49.8-99.17-65.43c-27.14-15.63-32.09-25.52-32.09-25.52l-56.79-55.7-85.62-1.89,61.34,34.56-6.99-.42-62.56-28.4,1.89,42.38,54.9,24.3,111.11,51.03,61.74,42.8s73.65,55.55,89.28,63.36c15.64,7.82.43,22.23.43,22.23l-11.54,14.81-88.46,126.74s-38.68,71.21-64.61,98.38c-25.95,27.15-96.73,98.75-96.73,98.75l-58.01,63.39,1.89,32.91,25.25-23.87s76.55-90.93,102.47-107.82c25.96-16.85,65.04-76.12,65.04-76.12l74.9-109.89s55.97-86.84,69.55-102.87c13.56-16.06,25.93-.82,25.93-.82l65,52.67s128.4,111.51,137.86,120.15c9.47,8.64.83,23.48.83,23.48l-63.36,102.87-49.4,84.79-79.42,137.43s-18.11,35.82-8.64,44.86c9.46,9.06-2.48,18.93-2.48,18.93l-22.22,13.58-130.44,81.89-210.87,136.64v32.92l277.95-182.32s77.77-46.9,94.65-59.66c16.86-12.76,24.67,3.3,24.67,3.3l116.06,173.24s44.86,66.66,55.57,81.9c10.69,15.23-2.9,20.58-2.9,20.58l-165.83,95.14-163.78,96.21s-96.3,55.54-109.06,64.21c-12.77,8.64-22.23-11.54-22.23-11.54l-106.99-166.26v52.68l32.91,47.32s38.29,63.39,52.28,78.6c13.98,15.23,4.94,23.87,4.94,23.87l-88.24,46.93v29.22s73.83-34.16,91.11-48.97c17.28-14.81,27.58.4,27.58.4l60.48,78.19,81.89,101.65,91.79,123.45,77.77,106.19,48.55,70.35c26.74,25.53,2.9,26.75,2.9,26.75l-141.16,38.29s-156.39,37.04-182.71,48.55c-26.35,11.54-28.83-2.87-28.83-2.87l-2.04-16.46-22.63-95.91-5.37-72.42-17.29,1.25v15.63l-6.16,45.25s21.83,107.42,28,121.83c6.16,14.42-9.9,20.16-9.9,20.16l-93.98,29.64v59.67l93.16-30.05-5.34,4.95-12.34,6.17-75.48,28.79v61.34s82.04-32.52,97.28-39.11c15.24-6.57,15.63,11.54,15.63,11.54l4.13,32.09,26.35-8.64s-2.9-16.06-7.42-30.87,8.24-18.11,8.24-18.11l27.97-7.81s204.94-62.57,239.93-68.74c34.96-6.16,174.9-55.96,174.9-55.96,0,0,71.17-25.93,93.01-37.44,21.8-11.54,12.33-.82,28.39,20.98,16.03,21.8,29.62,120.97,29.62,120.97v236.79h27.14l1.26-40.88,170.37,1.65s11.94-.83,13.56-13.16c1.65-12.37-11.51-14.02-11.51-14.02l-81.89.43-90.14-.43s1.26-104.94.43-123.05c-.82-18.11,3.7-94.23,3.7-94.23,0,0,4.51-60.48-17.29-95.48-21.8-34.96,3.3-44.42,3.3-44.42,0,0,43.21-39.51,52.67-47.76,9.47-8.21,93.44-94.65,93.44-94.65,0,0,78.59-76.12,81.89-85.19,3.26-9.04,42.38-39.91,42.38-39.91l57.61-44.03s25.5-18.1,59.67-34.56c34.16-16.46,36.21,4.12,36.21,4.12l16.06,92.58,47.72,199.99,29.22,116.46s16.07,67.51,24.28,94.65c8.24,27.18-7.82,26.75-7.82,26.75l-79.84,10.72-107.82,13.59s-25.1,2.04-20.97,13.98c4.12,11.94,14.8,11.94,14.8,11.94l77.77-9.47s102.9-13.58,114.02-16.45c11.11-2.9,21.8.39,24.67,15.2,2.9,14.81,6.59,66.26,6.59,66.26l-3.69,129.37h29.22s.4-124.42-.43-141.7c-.82-17.29,10.72-15.64,10.72-15.64,0,0,44.43-2.07,64.18-4.55,19.76-2.44,17.71,10.29,17.71,10.29l9.04,151.6h26.75l-1.23-28.12-6.59-109.89c-9.47-26.32,6.17-31.27,6.17-31.27l48.97-9.07s57.22-14.8,77.77-3.29c20.58,11.54,17.71,63.81,17.71,63.81l5.77,117.83h30.87s-9.07-72.15-7.02-100.55c2.08-28.39-11.51-77.37-11.51-77.37,0,0-10.29-19.75-30.87-28.39-20.58-8.65-72.82,0-72.82,0l-77.8,16.85s-72.83,4.12-93.41,7.02c-20.58,2.87-20.58-15.66-20.58-15.66l-6.99-30.84-48.15-196.73-50.2-207.41s-15.23-106.17-25.09-130.44c-9.9-24.28,10.28-26.75,10.28-26.75l11.91-1.65S-34.18,699.69-29.26,697.22c4.94-2.48,61.34-17.71,61.34-17.71,0,0,76.12-32.92,93-37.86,16.86-4.92,22.2,4.55,22.2,4.55l7.82,21.8s43.23,95.48,60.09,128.39c16.88,32.92,19.75,45.68,16.46,55.54-3.3,9.89-3.7,28.83-3.7,28.83l4.95,39.08c7.39,32.94-17.28,30.47-17.28,30.47,0,0-100.43,9.47-119.76,11.94-19.35,2.44-16.88,13.98-16.88,13.98l11.94,100,19.75,189.31s2.05,21.8,15.64,19.76c13.58-2.08,12.33-11.12,12.33-11.12l-3.27-29.65-7.84-70.35-14.81-115.23-5.35-72.85,10.69-2.87s76.15-9.47,100.03-9.47,20.98,14.81,20.98,14.81v6.17l15.23,119.75,15.21,116.88,14.41,131.7,13.98,125.09,14.81,100.15h25.53l-12.34-89.86-20.18-170.38-23.02-189.31-17.71-159.23s-7.82-89.31-10.29-107.84c-2.47-18.51,18.93-21.8,18.93-21.8l96.7-4.13,108.64-7.81c23.48,2.47,21.01,12.36,21.01,12.36l16.85,85.16,15.24,135.42,11.94,101.22,24.7,183.14,14.81,113.58,12.33,119.48h28.83l-13.19-105.92-20.98-160.06-18.53-145.28-17.29-139.11-10.68-92.18s-12.77-78.59-16.46-95.05c-3.7-16.46,3.3-16.89,3.3-16.89l132.09-25.49s89.31-18.11,110.71-20.18c21.37-2.05,20.55,20.18,20.55,20.18,0,0,38.29,202.47,40.76,213.15,2.47,10.72,14.81,60.52,14.81,60.52,0,0,91.36,234.13,100.82,253.89,9.47,19.76,4.52,28-6.59,33.74-11.12,5.77-53.07,38.29-61.31,46.93-8.22,8.64-51.85,61.74-51.85,61.74l-99.17,110.01h41.16l117.28-138.41s46.89-48.15,63.78-57.61c16.86-9.47,19.76-.43,19.76-.43,0,0,39.51,77.37,51.42,98.35,11.93,21,60.08,92.15,60.08,92.15h37.47l-60.09-82.26-76.55-142.81s-101.22-257.18-107.42-273.24c-6.16-16.06,1.65-18.11,1.65-18.11l56.79-19.75s138.29-47.73,145.28-51.85c7-4.12,11.94-9.46,9.87-19.36-2.05-9.86-17.29-6.17-17.29-6.17l-10.29,3.3-72.42,27.57s-97.53,37.44-111.51,40.34c-13.98,2.87-15.63-11.12-15.63-11.12,0,0-24.49-130.83-39.54-192.02-15.06-61.19-12.25-85.68-12.25-85.68l11.73-120.36,77.86,24.09s41.06,5.13,57.28,13.43c16.21,8.31,37.34,25.68,37.34,25.68l118.56,49.41s91.27,30.01,116.95,35.57c25.68,5.52,45.46,5.52,45.46,5.52,0,0,45.44-5.92,69.53-8.3,24.12-2.38,26.07,13.43,26.07,13.43,0,0,39.54,77.07,51.39,94.05,11.85,17-1.98,18.96-1.98,18.96l-65.59,22.14-95.63,31.99-47.42,22.14-120.52,56.92s-23.32,10.65-15.02,20.94c8.31,10.26,20.15,4.34,20.15,4.34l84.18-39.91,99.57-45.04s115.79-45.86,139.09-52.18c23.32-6.32,30.84,9.1,30.84,9.1l47.02,90.11s35.17,70.31,50.96,92.85c15.81,22.53-10.66,18.96-10.66,18.96,0,0-49.4,11.85-78.65,21.34-29.23,9.47-53.35,3.54-53.35,3.54l-19.75-5.52-81.01-24.49s-21.74-1.59-26.47,9.47c-4.73,11.08,18.96,18.19,18.96,18.19,0,0,62.05,16.58,88.52,24.89,26.47,8.3,44.27,6.32,44.27,6.32,0,0,41.89-4.34,52.15-10.26,10.26-5.95,15.42,1.95,15.42,1.95l26.48,57.32s6.71,17.77,14.62,11.05c7.88-6.72,1.96-14.23,1.96-14.23l-28.83-64.79s17.38-1.99,37.13-10.29c19.76-8.28,27.27,6.71,27.27,6.71l45.03,83.79s85.38,155.69,94.08,171.9c8.67,16.19,31.6,28.83,31.6,28.83,0,0,71.12,29.65,79.42,33.98,8.31,4.37,71.54,56.52,71.54,56.52l21.31,41.1h31.64l-34.38-60.86-69.96-56.12s-63.6-32-80.21-33.19-25.68-20.15-25.68-20.15l-11.08-19.36-75.05-136.33s-52.19-91.27-56.52-102.35c-4.34-11.05,3.94-13.83,3.94-13.83l207.08-103.11,214.56-117.77,79.81-39.51s12.24-8.7,5.92-18.57c-6.31-9.89-17.37-5.16-17.37-5.16l-161.61,86.54-233.95,123.29s-74.29,37.56-96,48.21c-21.74,10.69-24.12-1.98-24.12-1.98l-17.77-30.02-99.21-185.34-75.08-143.05s-45.83-91.26-52.94-101.95c-7.12-10.65,5.55-13.04,5.55-13.04l217.71-57.67,173.55-49.41s52.82-7.75,127.36-22.41c74.5-14.69,79.63,25.34,79.63,25.34l122.65,253.46s8.37,10.05,18.02,4.19c9.65-5.87,5.25-17.41,5.25-17.41l-130.17-263.93c28.8,0,87.58,13.19,87.58,13.19l111.57,28.79,352.75,91.79v-48.58l-287.38-73.8s-226.75-56.98-283.72-61.16c-56.98-4.21-83.97,1.19-133.77,8.98-49.8,7.81-93.59,22.2-93.59,22.2l-388.08,103.78-5.4-27.6c8.97-.61,130.16-42.6,179.35-56.4,49.19-13.77,142.75-30.56,142.75-30.56ZM1845.78-387.09c24.12,8.03,205.58,47.47,205.58,47.47l53.68,10.48s16.37,1.31,11.12,17.68c-5.23,16.33-31.88,136.76-31.88,136.76,0,0-12.61,54.99-13.28,66.1-.65,11.15-24.86,106.69-24.86,106.69l-41.89,178.04-5.89,26.81s-.65,13.77-33.38,3.3c-32.73-10.48-100.79-22.94-100.79-22.94l-76.58-18.96-24.21-3.94s-15.73-2.68-5.37-27.57c10.35-24.91,26.44-95.42,26.44-95.42,0,0,9.19-75.17,14.93-102.13,5.77-26.99,15.33-63.75,3.85-80.24-11.52-16.46-11.12-18.78-21.07-28.73-9.99-9.96-18.41-11.88-9.59-24.13,8.82-12.27,23.36-61.71,24.52-75.48,1.16-13.8,23.39-100.39,23.39-100.39,0,0,1.13-21.47,25.28-13.4ZM1427.89-258.03l-90.13-22.9s-14.14-2.75-5.89-27.91c8.24-25.16,33.8-141.89,33.8-141.89l9.04-34.99s-.4-18.47,31.05-8.64c31.45,9.83,194.96,49.53,194.96,49.53l184.72,44.03s17.01,2.22,12.86,17.52l-43.79,161.16s.25,39.72-70.01,29.01c-70.26-10.69-256.61-64.92-256.61-64.92ZM1524.53,46.48l37.22-148.08,16.19-73.65s1.22-18.2,23.48-9.31l83.75,17.8s25.5,6.47,41.68,2.01c16.18-4.43,44.52,6.9,50.56,25.92,6.08,19,1.62,52.19,1.62,52.19,0,0-.39,26.71-16.58,24.27-16.18-2.41-84.97-17.8-84.97-17.8l-46.14-9.22s-17.37-7.36-21.43,4.76c-4.06,12.15,15.78,20.25,15.78,20.25l15.79,2.16s8.49,1.9,4.43,15.24c-4.03,13.34-27.91,112.49-27.91,112.49,0,0-4.03,12.94,6.07,14.16,10.11,1.22,15.36,2.84,21.84-14.16,6.5-17.01,21.86-92.25,21.86-92.25l2.84-14.59s1.16-14.14,20.39-8.09c19.27,6.07,70.23,13.77,70.23,13.77,0,0,12.95.39,7.7,20.64-5.26,20.21-36.43,154.16-36.43,154.16l-25.07,79.73-3.63,12.94s-1.62,16.98-29.16,8.89c-27.51-8.09-110.87-23.88-110.87-23.88,0,0-36.4-2.41-55.02,16.21-18.63,18.6-34.81,33.16-34.81,33.16h-4.03l54.62-219.72ZM-230.3-383.25l-78.5-137.37-28.98-59.81s-15.87-18.72-4.67-27.12c11.21-8.39,22.44-13.1,22.44-13.1l105.59-68.21s22.44-17.77,33.65,6.53c11.23,24.31,113.09,201.89,113.09,201.89l105.62,200.95s32.7,47.66,11.21,60.73c-21.5,13.1-136.46,64.48-136.46,64.48,0,0-13.07,14.02-31.75-26.16-18.72-40.19-111.24-202.81-111.24-202.81ZM518.02,228.28s7.76-1.8,4.92,4.25c-2.84,6.01-6.81,6.71-7.94,6.62-1.1-.09-6.87-4.64,3.02-10.87ZM411.28,336.65l68.7-72.77s9.28-10.65,15.57-6.81c6.29,3.85,1.92,11.55,1.92,11.55l-51.05,61.37s-18.01,18.72-30.96,17.13c-12.95-1.56-4.18-10.47-4.18-10.47ZM-374.57,94.73s3.18-11.67,19.08-7.97c15.91,3.72,201.95,86.93,201.95,86.93l201.43,87.99,99.12,41.87s53,34.47,59.9,39.23c6.9,4.77,32.34,27.02,53.53,37.1,21.22,10.08,41.37,13.25,21.22,26.5-20.15,13.26-64.67,52.49-72.61,58.32-7.97,5.84-130.41,88.52-168.06,106.54-37.61,18.04-61.46,29.67-99.63,36.57-38.16,6.91-121.4,33.32-121.4,33.32l-210.44,53.09s-147.87,54.6-171.2,66.78c-23.33,12.22-45.07,23.33-45.07,23.33l-31.78-20.15,65.19-177.56,45.06-115.02,82.69-200.39,71.02-176.48ZM-703.23,820.42l60.94-48.43,23.39,20.06-69.31,54.26s-7.36,7.24-13.22,0c-5.86-7.23-9.5-14.71-9.5-14.71,0,0-2.44-3.12,7.7-11.18ZM-720.94,802.71s-2.75,8.92-12.16-6.59c-9.4-15.52-85.06-139.6-85.06-139.6l-54.08-88.37-70.96-111.42s-67.87-97.58-57-106.04l17.31-12.92,173.7-109.64s12.31-14.54,22.36,4.46c10.07,19.02,144.24,202.59,144.24,202.59l45.83,73.03s20.21,5.87,8,41.13c-12.25,35.27-41.38,119.88-41.38,119.88l-26.32,74.71s-.94,6.29-15.05,18.45c-14.11,12.12-49.43,40.33-49.43,40.33ZM-537.62,7.77c28.18,15.66,130.04,54.8,130.04,54.8,0,0,17.22,11,4.71,39.18-12.55,28.21-64.25,148.06-64.25,148.06l-94.01,231.87s-4.82,31.36-20.03,3.94c-15.24-27.42-129.58-191.14-129.58-191.14l-54.11-76.79c-1.8-2.54-12.98-13.44.82-23.48l85.41-76.8,65-71.26,21.93-29.77s25.86-24.31,54.07-8.61ZM-1085.15,235.94l-53.74-78.47-87.51-129.83s-3.78-6.16,4.28-22.35c8.09-16.18,55.66-95.11,55.66-95.11l77.53-140.76,58.96-93.71s1.98-5.52,7.93-3.66l85.16,85.16,20.09,16.94s16.64,22.84,43.27,32.34l97.49,58.04,70.87,52.31-24.73,36.15,5.71,4.27,29.5-33.77,87.51,50.41s20.42,7.15,7.6,18.57c-12.86,11.39-43.27,41.37-43.27,41.37l-57.55,63.73s-39.94,45.64-75.64,73.7c-35.66,28.06-105.09,73.25-105.09,73.25l-129.83,82.75s-5.71,12.83-22.84-13.8c-17.1-26.63-51.36-77.53-51.36-77.53ZM-1317.51,853.89c-10.57-10.94-70.93-92.43-70.93-92.43l-94.35-116.97s-4.52-8.71,10.2-16.98c14.72-8.31,77.74-44.55,77.74-44.55l113.19-67.91,20.76-12.45s15.08-12.83,25.28,0c10.17,12.82,15.08,10.19,20.73,16.21,5.68,6.04,28.71,46.81,28.71,46.81,0,0,21.12,37.74,27.9,40.76,6.81,2.99,36.61,48.27,36.61,48.27,0,0,8.67,9.07,0,17.74-8.67,8.67-80.36,56.98-80.36,56.98l-73.98,54.72s-13.96,9.43-10.17,23.02c3.75,13.59,3.02,13.95,7.54,18.87,4.52,4.91,8.3,8.3,2.63,16.97-5.65,8.68-25.29,19.24-25.29,19.24,0,0-5.64,2.66-16.21-8.3ZM-1113.36,679.69l42.62,54.96,4.89,6.66-46.78,37.49s-7.91,20-22.99,15.85c-15.12-4.15-20.4-6.78-29.44,3.02-9.06,9.8-39.26,27.18-39.26,27.18,0,0-15.08,4.88-24.89,4.15-9.8-.76-18.87,5.22-18.87,5.22,0,0-8.3-21.83-10.2-23.33-1.86-1.52-25.28-12.09-10.16-20.39,15.08-8.31,72.82-52.83,72.82-52.83l82.26-57.98ZM-1226.95,975.78c-12.06-24.52-55.48-75.85-55.48-75.85,0,0-11.11-5.22,9.07-24.15,4.89-4.58,10.05-10.29,14.47-15.48,10.02-11.73,23.7-19.88,38.9-22.35,2.48-.4,4.86-.64,7-.64,12.82,0,44.15-26.42,44.15-26.42,0,0,12.33-13.98,23.51-7.57,11.2,6.41,32.33-8.67,32.33-8.67l56.89-40.12,30.65,41.65,18.11,25.65s11.7,13.58-5.28,24.15c-16.98,10.56-130.17,95.84-130.17,95.84l-43.38,31.33-11.7,9.4s-17.01,17.74-29.07-6.77ZM-1110.65,1219.89c-3.2,3.21-78.19,23.73-78.19,23.73l-147.78,40.21-136.76,39.02s-7.97-3.2,1.89-8.82c9.83-5.59,36.64-12.03,36.64-12.03l69.04-18.32,105.89-28.67,110.25-29.53,38.2-9.5s4.06.68.82,3.91ZM-957,1160.96c-2.93,6.29-97.37,41.62-97.37,41.62,0,0-6.96-.92-2.93-6.32,4.06-5.37,98.25-40.67,98.25-40.67,0,0,4.95-.92,2.05,5.37ZM-937.15,1086.7c-11.33,7.94-55.48,35.48-75.09,37.38-19.63,1.89-68.3,26.78-68.3,26.78,0,0-21.49,9.43-37.74-24.52-16.21-33.96-73.95-101.13-73.95-101.13,0,0-12.83-12.09,15.08-26.78,27.94-14.72,95.09-70.96,95.09-70.96l118.86-87.17,51.33-35.85s3.79-10.17,1.89-17.34c-1.89-7.18-22.65-2.26-28.67,4.91-6.04,7.15-29.92,21.87-29.92,21.87,0,0-11.21,4.91-27.45-14.72-16.22-19.6-39.6-55.85-39.6-55.85l-40.4-59.23-17.74-18.11-17.34-12.46-41.89-55.08s-56.22-83.02-56.98-94.71c-.76-11.7-13.59-20.37,0-30.2,13.59-9.8,124.52-73.96,124.52-73.96l40.39-23.38s20.37-10.57,25.65,4.91c5.28,15.45,80.36,132,80.36,132l85.29,137.8,91.69,146.01,36.61,56.12s10.16,14.84,0,26.14c-10.2,11.33-63.79,69.43-63.79,69.43l-82.25,88.67s-54.32,41.53-65.65,49.43ZM-873.98,1258.4s-13.59-27.12-18.38-39.21c-3.08-7.82-5.53-13.89-6.87-17.22-.95-2.35-1.01-5.01.06-7.3.83-1.77,2.51-2.78,4,1.19,2.99,7.91,3.82,10.57,3.82,10.57,0,0,19.02,40.73,17.37,51.97ZM105.18,603.63c-17.38,8.31-93.41,37.5-93.41,37.5l-96.97,27.29-88.09,23.3-89.25,23.51-89.28,26.26-88.27,23.91s-22.32,5.13-44.64,14.41c-22.3,9.28-68.52,30.99-74.63,38.32-6.14,7.3-59.66,45.01-59.66,45.01,0,0-34.57,32.79-44.03,43.45-9.5,10.65-82.17,85.31-82.17,85.31l-81.95,84.94-56.88,49.16s-7.12,6.54-11.45,0c-4.34-6.5,4.94-13.83,4.94-13.83,0,0,40.67-27.05,55.7-42.84,14.99-15.82,50.74-53.13,50.74-53.13l78.99-86.71s63.21-70.11,85.93-83.15c22.71-13,36.91-23.69,36.91-23.69,0,0,18.17-12.24,43.45-23.3,25.28-11.05,71.3-32,71.3-32l62.8-23.29,59.64-17.38,215.87-55.9s109.4-29.62,130.35-34.54c20.91-4.94,97.34-47.2,117.89-59.05l8.7,13.62s-5.16,4.55-22.53,12.82ZM131.47,584l-5.87-11.76,37.68-27.17s47.91-32.55,70.56-46.63c22.66-14.04,40.89-30.71,40.89-30.71,0,0,20.58-23.21,38.04-32.55,17.44-9.35,11.09,8.27,11.09,8.27,0,0-31.54,25.65-55.05,44.64-23.52,18.99-42.2,32.31-71.06,52.09-28.85,19.76-66.28,43.82-66.28,43.82ZM796.98,657.62c-7.51,36.51-10.51,89.06-10.51,89.06,0,0,1.41,13.99-20.06,17.99-21.46,4-175.05,29.52-175.05,29.52l-83.02,16.52s-220.6,13.5-228.11,13.99c-7.52.51-23.51,2.5-31.52-19.52-8-21.98-66.04-140.54-66.04-140.54l-9.01-21.01s-13-19.51,0-27.51c13.01-8.03,111.57-76.06,111.57-76.06l52.03-42.5,36-31.02s28.52-16.52,51.54-5.5c22.99,10.99,28.49,12.49,28.49,12.49,0,0,5.01,6.5-1.98,20.52-7,14.01-26.02,57.52-26.02,57.52,0,0-11.51,19.94,3.51,24.73,14.99,4.8,24.49-22.71,24.49-22.71l25.04-56.55s4-13.01,20.49-4.98c16.51,8,235.11,101.25,235.11,101.25l53.52,24.79s17.01,3,9.53,39.52ZM798.81,566.72l-354.83-153.31,3.29-3.94,354.9,148.82-3.36,8.43ZM928.36,607.45c-32.24-6.44-77.89-23.63-77.89-23.63l2.14-7.52s41.89,18.26,58.56,20.4c16.64,2.17,61.22,4.31,93.47,3.24,32.21-1.07,157.92-6.63,157.92-6.63l91.32-9.49,3.21,14.5-74.66,6.99-171.9,2.14s-49.95,6.44-82.17,0ZM1346.43,736.18s12.86,16.82-11.45,17.52c-24.3.74-68.64,13.23-93.68,2.14,0,0-119.75-38.68-130.13-45.07-10.35-6.41-86.87-29.64-86.87-29.64l-30.01-20h126.89s88.67-5.01,99.39-5.38c10.72-.36,62.93-6.81,62.93-6.81,0,0,19.3,1.65,24.67,12.19l38.26,75.05Z"/>
      <polygon class="cls-4" points="853.72 419.28 928.05 454.44 907.96 498.13 853.72 473.02 850.48 488.09 757.8 447.41 754.78 457.25 745.1 453.1 741.73 460.97 596.08 395.97 620.69 343.45 784.41 418.28 788.93 406.73 847.69 432.34 853.72 419.28"/>
      <polygon class="cls-4" points="607.97 350.12 579.7 382.65 523.57 332.69 631.2 209.93 666.06 241.69 637.79 270.73 645.53 276.93 594.81 338.5 607.97 350.12"/>
      <polygon class="cls-4" points="731.5 285.84 751.25 292.81 746.22 307.91 727.24 301.72 731.5 285.84"/>
      <polygon class="cls-4" points="762.07 290.87 802.17 303.65 797.34 319.92 756.29 307.91 762.07 290.87"/>
      <polygon class="cls-4" points="824.83 331.92 968.89 374.91 961.53 400.46 818.25 359.42 824.83 331.92"/>
      <polygon class="cls-4" points="873.24 296.87 869.75 309.85 840.71 303.36 844.97 290.87 873.24 296.87"/>
      <polygon class="cls-4" points="907.42 309.66 945.26 320.35 944.13 335.21 902.88 322.22 907.42 309.66"/>
      <polygon class="cls-4" points="667.63 148.07 703.28 160.98 687 213.48 651.91 203.65 667.63 148.07"/>
      <polygon class="cls-4" points="666.06 209.93 683.91 218.81 671.84 239.16 656.12 228.03 666.06 209.93"/>
      <polygon class="cls-4" points="846.17 203.1 830.74 253.05 802.18 244.66 808.56 226.4 780.47 219.09 775.15 234.83 748.49 226.68 746.22 232 719.85 224.53 721.77 218.37 694.59 209.94 710.3 161.26 791.7 185.68 792.98 181.51 820.23 190.28 818.92 194.39 846.17 203.1"/>
      <polygon class="cls-4" points="900.82 204.52 929.84 212.54 928.61 216.49 1007.89 241.23 996.27 277.23 968.09 267.23 966.95 270.42 915 253.85 916.26 248.01 890.76 240.87 900.82 204.52"/>
      <polygon class="cls-4" points="952.11 52.6 1058.75 77.25 1049.77 116.63 944.74 91.76 952.11 52.6"/>
      <polygon class="cls-4" points="953.57 46.68 956.95 30.26 982.05 35.56 977.91 52.6 953.57 46.68"/>
      <polygon class="cls-4" points="967.81 3.26 1010.03 13.09 1012.97 -1.46 970.92 -10.5 967.81 3.26"/>
      <polygon class="cls-4" points="1018.67 -.08 1015.33 14.07 1057.59 24.29 1061.32 10.53 1018.67 -.08"/>
      <polygon class="cls-4" points="1069.77 57.11 1086.67 61.04 1077.43 97.2 1061.32 93.27 1069.77 57.11"/>
      <polygon class="cls-4" points="1082.74 3.65 1094.53 6.41 1086.67 41.43 1073.99 38.44 1082.74 3.65"/>
      <polygon class="cls-4" points="971.9 -45.48 1084.26 -19.93 1078.22 7.39 966.6 -17.37 971.9 -45.48"/>
      <polygon class="cls-4" points="1160.27 -52 1196.95 -45.48 1157.08 125.58 1119.33 116.63 1160.27 -52"/>
      <polygon class="cls-4" points="864.13 -123.77 901.88 -109.95 843.93 52.6 806.71 38.92 864.13 -123.77"/>
      <polygon class="cls-4" points="483.38 498.13 643.84 566.71 623.08 614.32 464.06 545.31 483.38 498.13"/>
      <rect class="cls-4" x="634.61" y="616.52" width="28.13" height="30.33"/>
      <polygon class="cls-4" points="679.44 596.3 728.67 593.31 740.54 722.01 705.37 722.01 704.49 696.96 688.67 696.96 679.44 596.3"/>
      <polygon class="cls-4" points="602.08 651.02 643.84 653 643.84 668.12 602.08 666.7 602.08 651.02"/>
      <polygon class="cls-4" points="551.19 649.49 586.58 650.55 585.63 664.56 551.19 664.56 551.19 649.49"/>
      <polygon class="cls-4" points="539.09 627.26 539.09 647.92 534.33 647.8 534.33 661.7 504.87 661.7 504.87 646.92 503.22 646.86 503.22 626.33 539.09 627.26"/>
      <rect class="cls-4" x="447.41" y="626.33" width="33.96" height="33.24"/>
      <polygon class="cls-4" points="662.74 715.86 678.26 714.91 681.35 741.51 664.25 741.51 662.74 715.86"/>
      <polygon class="cls-4" points="653.32 680 658.78 730.58 342.43 772.15 343.38 784.33 327.47 784.33 324.86 758.37 340.29 756.71 335.78 722.03 653.32 680"/>
      <polygon class="cls-4" points="430.08 637.76 443.98 683.35 389.24 700.49 374.65 653.44 430.08 637.76"/>
      <polygon class="cls-4" points="449.07 610.78 437.01 637.76 370.28 604.22 382.68 577.23 449.07 610.78"/>
      <polygon class="cls-4" points="317.2 696.42 332.9 694.37 334.72 714.39 317.2 714.39 317.2 696.42"/>
      <polygon class="cls-4" points="334.72 669.13 334.72 685.84 310.52 685.84 310.61 675.73 286.94 647.05 296.74 639.77 321.28 669.13 334.72 669.13"/>
      <polygon class="cls-4" points="325.96 654.55 331.53 666.61 367.25 654.55 360.65 639.77 325.96 654.55"/>
      <polygon class="cls-4" points="334.72 672.76 368.39 659.57 373.17 670.71 337.9 684.13 334.72 672.76"/>
      <polygon class="cls-4" points="232.77 598.43 299.93 749.53 283.52 755.64 289.99 774.71 259.48 787.31 186.6 616.52 232.77 598.43"/>
      <polygon class="cls-4" points="404.86 462.2 433.1 498.13 285.43 614.32 255.66 577.23 404.86 462.2"/>
      <polygon class="cls-4" points="261.8 591.96 284.56 620.37 272.03 629.01 250.67 600.9 261.8 591.96"/>
      <polygon class="cls-4" points="840.57 714.91 905.76 704.67 907.29 723.93 888.19 726.22 904.23 844.38 854.83 850.24 840.57 714.91"/>
      <polygon class="cls-4" points="924.6 730.8 949.05 726.73 951.09 747.1 924.6 750.41 924.6 730.8"/>
      <polygon class="cls-4" points="930.97 781.99 948.29 779.95 949.56 798.03 933.01 799.56 930.97 781.99"/>
      <polygon class="cls-4" points="933.26 809.24 973.24 801.34 989.54 891.24 965.35 894.8 952.62 824.98 936.57 827.06 933.26 809.24"/>
      <polygon class="cls-4" points="421.8 172.21 440.03 149.77 426.94 136.91 446.81 113.07 460.84 123.35 476.5 105.35 465.05 96.47 482.34 72.16 524.89 100.44 509.46 124.29 482.58 109.33 507.82 131.3 454.53 197.22 421.8 172.21"/>
      <polygon class="cls-4" points="392.81 110.5 426.94 136.91 408.48 158.42 376.92 131.53 392.81 110.5"/>
      <polygon class="cls-4" points="504.79 68.65 538.91 91.79 636.16 -48.7 625.17 -55.24 640.13 -80.02 649.02 -75.11 702.31 -176.56 655.09 -199.24 641.54 -173.76 644.57 -172.35 633.12 -148.51 638.03 -146.17 612.55 -96.62 600.16 -103.4 586.13 -82.12 600.86 -72.77 504.79 68.65"/>
      <polygon class="cls-4" points="379.36 110.5 343.71 86.03 360 61.94 343.71 51.44 404.64 -44.72 461.42 -7.96 452.13 5.68 463.73 11.83 436.76 54.55 424.18 45.94 379.36 110.5"/>
      <polygon class="cls-4" points="458.81 3.75 486.06 20.98 493.09 12.36 475.16 -1.35 485.71 -24.91 475.95 -30.89 458.81 3.75"/>
      <polygon class="cls-4" points="126.68 114.93 389.56 228.03 408.38 207.16 432.8 218.49 353.71 318.07 341.44 322.32 249.05 281.53 186.14 267.28 74.09 215.68 -65.98 153.51 -44.35 104.61 102.59 168.99 126.68 114.93"/>
    </g>
    <path class="cls-5" d="M1005.21,300.48c-7-3.03-15.08-4.29-22.76-3.77-5.97.94-11.73,2.83-17.64,4-12.46,1.73-23.17,8.02-32.45,15.71-8.16,5.52-16.63,10.77-23.25,17.95-5.77,7.16-12.6,13.66-17.51,21.4-13.29,13.47-25.54,27.91-33.74,44.64-20.46-22.79-37.06-59.44-73.62-59.97-22.26-.22-44.19,12.5-55.04,30.48-7.79,15.44-12.21,33.32-7.59,49.97-3.91,4.52-7.82,10.99-9.09,12.57-7.08,10.07-8.53,27.21-5,38.75,1.54,4.06,4.18,7.62,6.75,11.16,3.67,5.18,6.18,11.1,10.75,15.7,10.98,10.54,25.59,16.81,38.64,24.77,10.55,5.58,22.24,8.79,33.79,12.04,8.69,2.67,16.69,6.91,25.31,9.76,7.6,2.8,15.67,3.88,23.42,6.18,6.22,1.99,12.45,4.18,18.51,6.7,1.88,6.94,2.33,15.55,12.04,13.39,3.56,1.53,7.76.16,10.21-2.54,8.52-8.87,16.83-17.9,25.06-27.01,23.06-24.52,41.66-52.16,60.84-79.32,9.09-12.38,19.62-23.74,28.7-36.14,13.76-16.88,18.95-38.4,19.64-59.29.08-2.61.04-5.2-.1-7.75,1.71-4.09,3.3-8.23,5.03-12.3,9.38-19.83-2.58-36.82-20.88-47.08ZM801.5,366.2c8.28,4.34,13.1,12.25,18.04,19.6-2.07-.2-4.17-.2-6.26-.23-5.56-.7-11.08-1.62-16.73-1.44-22.82-.62-30.85-1.76-51.28,10.09-1.58.96-3.11,2-4.59,3.1.8-1.95,1.72-3.99,2.79-6.18,9.02-17.67,37.36-33.98,58.02-24.95ZM838,544.04c-10.28-3.89-21.16-5.76-31.79-8.54-8.9-2.59-16.82-7.41-25.49-10.59-12.97-5.54-27.09-9.27-38.52-17.53-10.45-9.97-21.71-19.68-27.75-32.74-5.24-10.21-7.69-22.91-1.69-33.32,3.21-5.13,6.78-10.29,10.67-15.07.34.82.66,1.65,1.05,2.47,15.33,45.89,48.76,58.61,88.28,83.13,16.71,11.25,36.19,22.5,48.04,39.06-7.32-3.05-15.38-4.05-22.81-6.86ZM975.33,440.56c-15.66,21.76-35.93,40.04-55.43,58.73-14.64,13.95-27.7,29.16-40.95,44.24-9.74-19.23-28.57-32.78-47.6-43.62-14.86-9.02-29.29-18.69-44.92-26.56-16.59-7.83-34.77-16.88-42.44-33.67-5.66-13.03-8.29-21.37-6.64-31.22,1.59-1.55,3.27-3.04,5.03-4.43,3.84-3.19,7.48-6.64,12.03-8.97,6.27-2.88,13.31-3.57,19.98-5.29,10.64-2.58,21.72-2.37,32.4-.06,5.37,1.19,11.21.57,16.37,2.27,6.3,11.61,14.25,22.28,21.71,33.26,2.13,3.52,3.24,7.53,5.57,10.94,10.1,12.14,20.91-.55,20.71-11.76,5.94-29.61,21.48-57.48,46.93-76.47,15.49-10.65,35.52-11.92,54.11-11.24,24.41,3.4,28.87,12.49,28.46,34.17,1.14,25.35-11.28,48.71-25.32,69.67ZM1024.64,334.79c-1.68,5.08-3.09,10.26-4.76,15.35-3.27-16.52-13.03-29.92-33.85-33.83-20.06-3.73-40.47.18-57.97,9.26,2.32-1.82,4.73-3.52,7.34-4.99,23.38-13.5,39.19-26.59,67.82-14.59,11.69,5.73,26.22,14.42,21.42,28.8Z"/>
  </g>
  <path class="cls-2" d="M671.33,10.81c1.89-1.18,3.14-3.28,5.27-4.29,3.69-1.76,7.16-2.71,11.18-1.17,3.1,1.19,6.47,1.47,9.74,2.01,1.93.32,3.84.09,5.65-.96,1.29-.75,2.63-.88,3.88.23,1.74,1.55,3.47,1.55,5.34.17.62-.46,1.56-.66,2.31-.56,3.06.44,6.02.31,8.91-1.12,2.44-1.21,4.84-.99,7.14.59.23.16.52.23.75.39,1.96,1.39,4.31-.31,6.36,1.24,1.58,1.2,3.51,1.82,5.32,2.55.75.3,1.63.35,2.44.28,1.65-.15,3.28-.45,4.92-.7,2.75-.41,5.49-.5,8.19.38,3.24,1.06,6.42,1.5,9.74.08,1.17-.5,2.83-.33,4.03.21,2.88,1.3,5.73,2.21,8.83,1.49,5.07,1.33,10.32,1.46,15.36,2.95,1.38.41,2.6.67,3.99,0,2.8-1.36,5.76-1.83,8.82-2.11,2.97-.27,5.98-.96,8.46-3.35.72-.69,2.17-1,3.1-.71,6.28,1.93,12.66.63,18.98.92,1.98.09,3.83-.75,5.41-2.09,1.9-1.61,3.96-2.09,6.24-1.67,3.11.57,6.04.01,8.77-1.82.47-.32.97-.76,1.49-.81,5.46-.53,10.95-2,16.38-.55,2.76.73,5.37,1.14,8.15.64,1.63-.29,3.28-.41,4.92-.56,3.28-.31,6.56-.59,9.71-.87,6.66,7.41,7.17,7.63,16.47,6.93,1.35,1.18,2.72,2.81,4.39,3.77,3.46,2,7.1,3.03,11.12,3.14,7.06.2,13.64-1.83,20.13-4.45,2.18-.88,3.98-1.72,6.27-.44,2.06,1.15,4.3.62,6.47-.13,2.18-.76,4.28-.6,6.44.49,2.53,1.28,5.24,2.08,8.05,1.1,2.17-.76,3.62.35,5.12,1.97.73.79,1.92,1.31,2.95,1.42,3.02.33,6.07.47,9.07-.35,4.57-1.24,8.71-.09,12.51,2.95.89.71,1.88,1.27,2.79,1.87,2.02-.51,3.9-.98,5.97-1.5,4.6,2.77,9.79,3.51,14.97,4.32,2.43.38,4.93.08,7.27,1.49,1.14.69,2.69.64,4.07.66,5.22.09,10.42.41,15.6,1.15,3.32.48,6.55.51,9.65-1.45.8-.51,2.25-.28,3.19.19,2.77,1.38,5.71,2.53,7.97,4.9,2.32,2.44,5.07,3.9,8.03,4.55,5,1.09,8.91,4.92,13.66,6.62,1.21.43,2.04,2.09,3.19,2.93.89.65,2.03,1.31,3.02,1.23,2.08-.16,3.75.53,5.37,1.91,1.32,1.13,2.77,2.06,4.21,2.96,2.04,1.26,4.12,1.5,6.37.48,1.24-.56,2.64-.75,3.99-.92,1.09-.14,2.27.29,3.3-.02,3.81-1.16,7.57-1.39,11.39-.13.77.26,1.67.32,2.46.14,4.61-1.05,9.28-1.38,13.95-1.44,2.68-.03,4.86-1.3,6.91-2.84,1.44-1.09,2.82-1.64,4.53-1.89,3-.45,6-1.13,8.89-2.12,2.7-.92,5.32-1.43,8.14-1.01,1.31.19,2.82-.01,4.05-.58,3.47-1.59,7.05-1.48,10.6-1.03,2.27.29,4.38.07,6.52-.65,6.38-2.13,12.9-3.3,19.53-4.01,6.29-.68,12.56-1.85,18.61-4.14.5-.19,1.15-.5,1.54-.29,2.09,1.09,4.11,1,6.38.64,2.17-.35,4.34-.54,6.5-1.12,1.29-.34,2.88-.43,4.07.12,3.47,1.62,7.06,1.24,10.63,1.34,2.21.06,4.47.45,6.62.04,3.51-.67,6.59.33,9.5,2.29,1.89,1.27,3.69,1.05,5.54.15,1.77-.87,3.6-1.68,5.23-2.82,1.76-1.23,3.61-1.34,5.56-1.43,2.22-.1,3.7,1.02,4.6,3.22,1.06,2.61,1.8,5.31,1.13,8.21-.72,3.14-.37,6.24.18,9.34,1.11,6.24.86,12.46-.07,18.71-.55,3.7-1.05,7.44-1.21,11.18-.12,2.64-.62,4.89-2.16,6.91-.95,1.25-1.13,2.82-.52,4.42.11.29.2.59.32.87,3.05,6.75,3.62,13.73,1.51,20.96-.09.3-.18.61-.19.91-.02.62-.14,1.32.05,1.86,1.51,4.25-.42,8.8.92,13.05,1.33,4.22,1.51,8.57.91,12.96-.32,2.29.08,4.35,1.07,6.34.4.81.93,1.76.87,2.6-.27,4.15.51,8.07,1.57,11.97.08.29.08.65,0,.94-1.41,4.91-.45,9.99-.92,14.95-.29,3.08-1.26,6.09-1.96,9.12-.42,1.81-1.05,3.58-1.33,5.42-.24,1.52-.49,3.26-.07,4.64,1.11,3.59-.2,6.01-2.29,8.37-1.27,1.44-1.77,3.49-.81,5.19,1.66,2.91,1.16,5.29-.62,7.71-.34.47-.53,1.09-.78,1.64-.43,9.1-.6,18.22-2.33,27.16-.49,2.53-.36,4.97.65,7.36,1.12,2.65,1.42,5.41.28,8.19.2,3.77-.03,7.56-.91,11.16-1.7,7-2.02,14.19-2.91,21.31-.43,3.44-.81,6.84-.36,10.19.75,5.6,1.49,11.13,1.15,16.85-.13,2.09.7,4.29,1.26,6.38,1.06,3.97,1.58,7.97.8,12.07-1.21,6.38-.59,12.4,2.41,18.08.69,1.3.99,2.9,1.34,4.41.49,2.12.88,4.28,1.27,6.42.47,2.55,1.59,4.65,3.2,6.47,1.96,2.21,3.99,4.38,5.74,6.8,1.56,2.16,2.61,4.81,4.22,6.91,1.77,2.3,2.58,4.82,2.38,7.75-.21,3.08.27,6.21-1.24,9.19-1.28,2.53-.37,5.55-.39,8.35,0,1.27.26,2.63-.43,3.62-2.34,3.3-1.74,7.22-1.72,10.89,0,3.19-.19,6.19-1.04,9.25-1.36,4.89-1.53,9.85.03,14.81.45,1.44.58,3.05.62,4.6.06,2.49-.34,5.03-.04,7.46.3,2.45,1.25,4.79,1.88,7.19.64,2.48.79,4.96-.26,7.35-.9,2.04-.99,4.19-.96,6.43.03,2.82-.06,5.65-.24,8.47-.1,1.54-.44,3.06-.78,4.57-.27,1.21-.92,2.36-1.01,3.57-.23,3.12.01,6.32-.41,9.39-.43,3.07-1.79,5.95-1.71,9.17.07,2.51.03,5.03.23,7.53.48,5.95.66,11.8-.63,17.74-.78,3.6-.43,7.51-.75,11.26-.32,3.74-1.07,7.45.19,11.15.19.57.31,1.24.27,1.85-.57,8.46.22,16.97-.67,25.43-.27,2.56-.99,4.9-1.99,7.15-2.11,4.78-3.77,9.73-5.26,14.81-2.55,8.67-4.16,17.55-5.42,26.54-.56,4.03-1.11,8.06-1.76,12.07-.5,3.11-.78,6.16-.39,9.35.88,7.28.29,14.41-2.29,21.25-.42,1.12-.76,2.44-.68,3.62.16,2.44,1.2,4.66.23,7.35-.69,1.9-.25,4.33-.33,6.52-.1,2.51-.2,5.02-.35,7.53-.06.93-.13,1.9-.42,2.75-2.29,6.88-3.03,13.96-2.31,21.25.32,3.18.08,6.33-.8,9.33-1.42,4.87-1.7,9.83-1.49,14.88.05,1.25.1,2.52,0,3.77-.38,4.94-4.16,9.63-8.6,9.84-6.03.29-11.15,3.21-16.36,6.13-2.32,1.3-3.62,3.84-5.56,5.58-.91.81-1.96,1.26-3.08.81-2.63-1.07-5.34-1.54-8.11-1.65-1.45-.06-2.54-.82-3.56-2.02-.72-.85-1.78-1.54-2.79-1.82-2.4-.67-4.82-1.11-7.37-.66-4.06.72-8.19.74-11.97,3.07-1.94,1.19-4.2,1.29-6.44.34-3.49-1.5-6.96-1.27-10.54.03-3.13,1.14-6.45,1.62-9.69,2.39-1.17.28-2.29-.03-3-1.03-.91-1.3-1.95-2.04-3.36-2.48-1.58-.49-3.13-1.25-4.56-2.15-3.87-2.44-7.75-4.76-12.11-5.95-1.84-.5-3.64-1.51-5.29-2.62-2.96-2.02-6.19-2.78-9.52-2.69-3.29.08-6.62.44-9.86,1.14-4.07.87-8.08,2.03-12.26,1.61-4.7,1.75-9.75,1.11-14.48,3.24-3.78,1.7-8.06,1.9-11.94,3.63-.99.44-2.23.62-3.26.39-2.93-.66-5.49.61-7.98,1.84-3.76,1.86-7.97,2.71-11.06,6.17-1.02,1.15-2.47,1.35-3.87,1.34-1.66-.02-3.31-.15-4.97-.16-1.73-.02-3.03.82-4.36,2.2-5.35,5.6-11.68,6.52-18.48,4.36-2.38-.76-4.66-1.73-6.72-3.51-2.02-1.74-4.55-2.16-7.12-1.8-1.92.27-3.84.55-5.77.67-4.2.26-8.16,1.33-11.88,3.65-2.94,1.83-6.02,2.91-9.53,2.33-1.52-.25-3.3.41-4.78,1.13-2.27,1.11-4.39,2.62-6.58,3.96-1.51.92-2.79.54-3.18-1.4-.78-3.84-2.9-6.02-6.04-6.98-1.91-.59-3.57-1.53-5.19-2.8-5.67-4.47-11.42-8.83-17.12-13.26-1.18-.92-2.45-1.34-3.86-1.46-3.85-.32-7.71-.62-11.55-1.11-3.3-.42-6.57,1.12-9.86.05-5.65,1.67-11.56.84-17.24,2.28-1.88.47-3.84.59-5.68,1.21-2.21.74-4.25.59-6.49.03-2.39-.6-4.93-.46-7.4-.53-2.02-.06-3.76,1.03-5.39,2.2-4.27,3.06-8.97,3.29-13.54,1.93-4.98-1.48-9.86-.51-14.78-.4-.77.02-1.5.8-2.29.96-3.22.66-6.15,2.38-9.52,2.72-2.65.26-5.23,1.82-7.76,3.04-2.06.99-4.14,1.69-6.37,1.95-2.31.28-4.35-.16-6.16-1.98-1.01-1.01-2.17-2.15-3.41-2.48-2.22-.59-4.12-1.74-5.94-3.18-1.49-1.18-3.1-1.13-4.74-.47-.78.32-1.65.47-2.34.96-4.83,3.41-10.47,3.84-15.75,5.59-1.3.43-2.74.43-4.11.41-3.31-.04-6.63-.12-9.94-.36-3.83-.28-7.06,1.03-9.74,4.15-.58.67-1.19,1.31-1.77,1.99-2.26,2.61-4.97,3.79-8.2,3.71-4.74-.12-9.33-.84-13.66-3.2-1.48-.81-3.03-1.77-4.61-1.94-3.87-.42-6.71-2.38-8.89-5.99-.57-.94-1.72-1.69-2.73-1.98-2.93-.87-5.92-1.53-8.91-2.16-2.53-.53-4.92-.17-7.04,1.74-1.86,1.68-4.14,1.99-6.32,1.38-6.25-1.73-12.09.17-17.74,2.65-4.1,1.8-8.02,2.39-12.07.59-2.81-1.25-5.37-.97-7.97.53-.49.28-1.09.3-1.56.61-4.4,2.89-9.21,4.01-14.21,4.44-1.35.12-2.71.6-3.97,1.18-3.33,1.51-6.6,3.19-9.91,4.72-1,.46-2.15,1.08-3.13.9-2.9-.55-5.42.21-7.93,1.83-1.43.92-3.16,1.21-4.6,2.11-2.81,1.75-5.77,1.9-8.85,1.74-2.83-.15-5.38-1.03-7.78-2.78-3.95-2.88-7.85-5.82-12.04-8.3-2.28-1.35-4.43-2.12-6.97-2.39-4.18-.45-8.3,1-12.39.43-4.06-.56-7.83-2.8-12-3.27-3.05-.35-6.02-.55-9.03.22-1.42.37-2.85-.11-3.89-1.15-3.5-3.5-7.1-6.92-10.28-10.78-2.82-3.44-6.1-4.4-9.72-3.14-2.18.76-4.26.96-6.47,1.06-2.47.11-4.92.69-7.38,1.1-2.21.36-4.38.5-6.53-.44-2.73-1.19-5.48-.91-8.03.55-2.95,1.68-5.85,1.39-8.85.38-1.85-.63-3.74-1.12-5.64-1.53-1.06-.23-2.37-.62-3.24-.15-2.98,1.63-5.16.11-7.52-1.66-1.43-1.07-3.32-1.11-4.67.25-1.97,1.98-4.19,2.66-6.73,3.14-2.96.55-5.87,1.72-8.69,2.94-1.93.84-3.67,1.21-5.54.04-.48-.3-1.02-.48-1.55-.64-1.94-.61-3.79-.57-5.55.76-1.15.87-2.33,1.7-3.57,2.37-.72.39-1.62.68-2.38.56-4.89-.79-9.97-.38-14.6-2.9-1.48-.81-3.11-1.34-4.48-2.33-4.88-3.54-10.33-4.62-15.88-4.08-3.64.35-7.2.4-10.63-.69-3.81-1.21-7.7-.64-11.51-1.32-1.01-.18-2.24.17-3.17.72-5.48,3.23-11.64,3.9-17.4,6.07-3.19,1.21-6.59.57-9.88.26-1.02-.1-2.11-.82-2.93-1.58-2.23-2.04-4.76-3.05-7.52-3.67-4.33-.97-8.6-2.22-12.92-3.27-3.29-.8-6.59-.37-9.9.03-2.14.26-4.37,1.22-6.44-.42-8.87-.64-17.66-.64-25.88,4.07-1.23.71-2.56,1.22-3.75,2-2.02,1.32-4.18,1.67-6.4,1.32-4.64-.74-9.27-1.54-13.89-2.47-1.04-.21-2.09-.9-2.94-1.65-1.89-1.68-4.03-2.03-6.27-1.77-3.01.35-6,.88-9.22,1.37-.81-.47-1.79-1.01-2.76-1.6-1.51-.93-3.08-1.38-4.77-.78-4.9,1.75-9.77,1.36-14.66-.13-2.68-.82-5.28-1.2-8.07.08-2.79,1.28-5.8,2.34-8.77,2.59-3.07.26-5.95,1.06-8.9,1.8-2.43.61-4.93.5-7.33-.65-1.78-.85-3.8-1.22-5.39-2.38-3.96-2.9-8.3-4.84-12.47-7.21-5.97-3.4-12.32-5.29-18.63-7.43-.76-.26-1.64-.16-2.46-.12-4.48.23-8.8-.84-12.98-2.48-4.19-1.64-8.37-3.04-12.75-3.96-3.21-.67-6.32-1.99-9.63-2.43-1.57-.21-3.12-1.23-4.52-2.18-1.67-1.12-3.25-2.29-5.2-2.79-1.01-.26-1.92-1.17-2.82-1.86-1.6-1.22-3.14-2.54-4.75-3.74-1.67-1.24-3.51-1.84-5.52-1.4-3.34.73-6.47-.02-9.73-1.09-4.21-1.38-8.62-2.05-12.97-2.73-2.22-.34-4.33-.91-6.4-1.82-3.61-1.59-7.27-2.81-11.25-2.47-1.33.11-2.72-.41-4.06-.76-4.42-1.16-8.7-1.04-12.98.96-1.73.81-3.56,2.17-5.53,1.4-2.22-.86-4.32-.67-6.49-.02-4.92,1.49-9.89.06-14.84.32-3.09-1.3-6.34-2.28-9.24-3.99-2.69-1.58-5.26-1.9-7.96-.79-1.96.8-3.73.67-5.61-.16-1.33-.59-2.36-1.4-3.19-2.78-1.79-2.97-2.65-6.13-2.23-9.75.25-2.16.29-4.35.59-6.49.23-1.63-.04-3.03-.62-4.53-.42-1.08-.59-2.48-.38-3.63,1.51-8.49.4-16.95-.39-25.34-.62-6.65-.65-13.11.67-19.63.98-4.86,1.28-9.85,2.54-14.71.99-3.83.89-8.07.95-12.14.04-2.56.31-5.04,1.04-7.4,1.86-5.96,1.65-12.38,3.28-18.38-.26-3.36-.07-6.78-.53-10.08-.32-2.28-.67-4.37.53-6.3,1.71-2.76,2.12-5.9,1.65-9.01-.5-3.35.26-6.14,1.59-8.98,2.23-4.75,3.59-9.82,3.89-15.23.05-.93.13-1.91.43-2.76,1.08-3.07.79-6.15.33-9.29-.31-2.16-.34-4.37-.62-6.54-.11-.89-.33-2.03-.87-2.54-2.51-2.38-2.36-5.35-1.98-8.6.39-3.38.37-6.92,1.81-9.93,2.21-4.63,2.26-9.6,2.43-14.59.09-2.83.15-5.65.21-8.48.05-2.21.26-4.34.96-6.46.46-1.4.5-3.06.45-4.59-.23-6.64.45-13.2,2.05-19.51.96-3.79,1.52-7.26.29-11.01-.49-1.5-.47-3.12.23-4.57,1.01-2.1.74-4.29.4-6.45-.34-2.16-.52-4.52-1.43-6.36-1.74-3.53-1.73-7.21-1.6-10.98.21-6.28.5-12.56.71-18.84.07-1.93.43-3.65,1.58-5.19,1.99-2.69,3.33-5.7,3.53-9.36.1-1.89.3-3.69-.15-5.58-.72-3.02-1.08-6.17-1.88-9.16-.9-3.36.26-6.85-.74-10.19-.13-.42.33-1.16.65-1.65,1.31-2.04,1.03-4.02.18-6.2-.67-1.69-.95-3.58-1.36-5.2.86-2.21,1.44-4.32,2.43-6.15,1.9-3.48,2.04-7.12,1.11-10.87-.39-1.57-.57-2.89.05-4.47.55-1.41.54-3.09,1-4.55,1.26-3.99,1.16-7.77.13-11.95-1.99-8.08-1.77-16.16,2.03-23.75.67-1.35,1.28-2.82,1.58-4.32,1.47-7.35,2.97-14.68,5.17-21.81.56-1.82.49-3.63-.13-5.51-1.26-3.81-2.17-7.78-3.55-11.53-1.39-3.75-3.42-7.19-4.16-11.26-2.65-3.54-3.13-7.77-3.49-12.25-.25-3.08-.71-6.19-1.11-9.28-.88-6.82-2.01-13.54-4.08-20.12-2.23-7.07-4.49-14.16-6.29-21.43-1.12-4.54-.43-8.62.39-12.87,2.39-3.28,1.64-7.14,1.51-10.86-.03-.92-.29-1.86-.57-2.74-.64-2.06.06-3.83,1.15-5.23,1.86-2.36,3.49-4.83,4.6-7.76.9-2.39,1.49-4.73.18-7.2-.94-1.79-.67-3.62.05-5.42.23-.57.48-1.13.72-1.7.95-2.26,2.18-4.43,2.78-6.8.6-2.38.57-4.96.81-7.46.03-.31,0-.66.1-.93,2.29-5.78,1.73-11.51.36-17.49-.73-3.22.5-6.84-.43-10.23.32-7.87,1.09-15.64,3.42-23.13.79-2.55,2.08-4.35,4.52-4.96,1.88-.47,3.68-.96,5.67-.92,4.1.09,8.27.32,12.19-1.66,1.09-.55,2.17-.14,3.19.35,4.84,2.34,10.1,2.74,15.14,4.14,1.32.37,2.74.63,4.08.48,2.54-.29,4.9.1,7.32.97,1.52.55,3.26.25,4.9.42,1.35.14,2.85.04,4.02.67,4.11,2.23,8.05,1.48,11.99-.41.76-.36,1.52-.78,2.21-1.29,1.51-1.11,3.14-1.03,4.8-.8.82.12,1.67.21,2.43.54,1.62.7,3.17.81,4.82.07.74-.33,1.7-.6,2.42-.36,5.27,1.79,10.41-.56,15.62-.56,1.55,0,3.31-.76,4.62-1.77,4.41-3.43,9.52-4.59,14.45-6.39.6-.22,1.02-.37,1.52.09,1.78,1.6,3.67,1.35,5.36,0,3.5-2.81,7.72-3.21,11.63-4.49,4.05-1.32,7.82-2.78,10.98-6.05.99-1.03,2.29-1.72,3.51-2.4,1.25-.69,2.58-.97,4-.48,4.57,1.57,9.23,1.71,13.94,1.04,1.12-.16,2.19-.4,3.05-1.26,1.49-1.5,3.19-2.16,5.15-2.68,2.93-.77,5.87-1.92,8.5-3.56,2.83-1.76,5.68-2.39,8.72-1.78,2.55.51,4.88.2,7.27-.9,3.32-1.53,7.15-.69,10.42-2.75.64-.4,1.63-.18,2.45-.11,5.19.43,10.48-.35,15.54,1.66,3.58,0,7.18.23,10.75-.05,3.09-.24,6.01-.18,8.91,1.26,1.8.89,3.7.58,5.64-.13,2.88-1.05,5.86-1.72,8.95-1.13.8.15,1.65.06,2.48.01,1.85-.11,3.39-2.07,5.53-.89,1.45.8,3.29.69,4.71,1.54,3.55,2.11,7.47,2.32,11.25,2.81,3.89.5,7.63,1.19,11.19,3.03,2.14,1.1,4.17.96,6.38-.06,2.59-1.19,5.08-2.43,7.14-5.05,1.5.73,2.96,1.45,4.43,2.13,1.28.6,2.54,1.27,3.86,1.7,2.11.69,4.2,1.48,6.5.94,1.38-.32,2.78-.45,3.72-1.74,1.57-2.18,3.69-2.49,5.94-2.73,1.46-.16,2.71.02,3.86,1.09,1.06.98,1.94,2.26,3.52,2.72,1.14-.49,2.49-.89,3.67-1.62,5.16-3.19,10.61-3.32,16.05-1.59,2.53.8,4.88.57,7.33.21,1.64-.24,3.33-.39,4.89-.97,2.19-.81,4.35-1.01,6.5-.22,1.91.7,3.76.86,5.68.21,2.51-.85,4.94-.37,7.26.84,1.76.91,3.55,1.57,5.43,2.12,2.49.74,4.77,1.12,7.22-.18,1.51-.8,3.03-.42,4.71.36,3.9,1.79,10.02,1.89,13.75.46,3.19-1.23,6.42-1.72,9.76-1.69,1.37.01,2.74-.02,4.11-.12,1.92-.14,3.43-1.91,5.44-1.79,1.64.1,3.29.11,4.94.14,3.57.05,6.91-1.62,10.59-1.5,3.51.11,7.13-.87,10.5-2.41,1.21-.55,2.27-.1,3.07.7,1.43,1.44,2.67,3.14,4.12,4.9,5.5-.85,10.99-.93,16.47-1.16,2.19-.09,4.41-.5,6.52-1.18,3.21-1.04,6.38-1.49,9.75-1.35,3.01.13,6.27-.49,8.43-3.06,2.82-3.34,6.37-3.18,9.84-3.73,3.56,1.31,6.44-.55,9.29-2.58.46-.33,1-.53,1.83-.95,1.55.58,3.31,1.47,5.16,1.87,1.68.37,3.11,1.2,4.61,1.99.96.51,2.07.74,3.14.88,3,.39,6,.78,9.01.94,1.34.07,2.97.04,4.02-.74,2.62-1.94,5.18-1.67,7.91-.73.5.17,1.08.02,1.7.02q5.75-4.97,12.31-6.71c2.05.95,4.05,1.96,6.1,2.78,1.02.41,2.18.79,3.22.66,5.7-.72,10.89.52,15.68,4.27,1.03.81,2.69,1.06,3.97.86,3.55-.56,7.06-1.42,10.56-2.31,2.11-.54,3.78-.12,5.16,1.86.29.42.96.49,1.48.73Z"/>
</svg>