<?xml version="1.0" encoding="UTF-8"?>
<svg id="Laag_2" data-name="Laag 2" xmlns="http://www.w3.org/2000/svg" viewBox="0 0 1330.56 1183.59">
  <defs>
    <style>
      .cls-1, .cls-2, .cls-3 {
        fill: none;
        stroke: #610f0c;
        stroke-miterlimit: 10;
        stroke-width: 3.66px;
      }

      .cls-2 {
        stroke-linecap: round;
      }

      .cls-3 {
        fill-rule: evenodd;
      }

      .cls-4 {
        fill: #610f0c;
      }
    </style>
  </defs>
  <g>
    <path class="cls-3" d="M589.38,905.43c-31.95,3.8-34.39,33.73-34.39,33.73l-61.19,5.79s-6.21-31.22-39.72-26.88c-33.51,4.35-39.33,34.93-39.33,34.93l-59.18,5.84s-7.76-31.38-41.75-26.75c-33.99,4.63-36.16,34.44-36.16,34.44l-58.36,5.76s-2.96-29.99-40.4-26.22c-37.44,3.77-37.51,33.91-37.51,33.91l-50.3,4.96-4-45.6s35.62-10.44,31.35-35.41c-4.27-24.97-37.56-27.48-37.56-27.48l-5.34-58.01s32.79-4.62,30.76-36.15c-2.03-31.53-37.71-30.36-37.71-30.36l-5.22-56.87s35.83-4.2,31.53-38.58c-4.29-34.38-39.43-32.43-39.43-32.43l-5.41-54.81s36.91-5.03,33.23-34.61-39.31-33.19-39.31-33.19l-5.68-56.49s32.01-.84,32.57-34.14c.57-33.3-39.73-33.33-39.73-33.33l-5.26-58.41s34.01-1.43,33.32-35.59c-.68-34.16-40.51-32.16-40.51-32.16l-4.82-53.9s37.93-5.43,32.17-40.52c-5.77-35.09-39.01-28.77-39.01-28.77L1.99,76.14l51.31-6.76s15.24,34.13,46.26,28.22c31.02-5.91,31.13-34.5,31.13-34.5l57.93-5.72s11.67,33.03,39.58,27.68c27.9-5.35,36.83-36.59,36.83-36.59l55.63-5.49s11.99,32.02,39.87,29.16c27.87-2.86,48.45-37.87,48.45-37.87l56.16-5.54s9.21,30.37,41.78,28.97c32.57-1.4,40.64-37.1,40.64-37.1l55.08-5.44s15.08,30.83,44.5,26.26c29.41-4.58,38.88-34.49,38.88-34.49l49.94-4.93,5.53,56.03s-34.44,7.27-32.7,35.87c1.75,28.6,39.04,28.37,39.04,28.37l5.72,57.95s-34.67,1.49-31.59,37.59c3.07,36.1,38.16,28.91,38.16,28.91l1.98,20.03"/>
    <path class="cls-3" d="M624.76,856.79l-434.17,42.85c-14.51,1.43-27.44-9.17-28.87-23.68L92.59,175.57c-1.92-19.41,12.26-36.69,31.67-38.61l518.78-51.21c14.51-1.43,27.44,9.17,28.87,23.68l18.53,187.77"/>
    <path class="cls-4" d="M589.81,693.95l.04-34.41c-2.09-11.59-4.34-23.15-6.84-34.66-1.71-7.9-3.98-15.69-5.87-23.56-1.51-6.24-2.93-12.51-4.14-18.82-.32-1.66.73-3.6.36-5.24-.52-2.35-1.58-4.65-2.8-6.74-.35-.61-3.01-.65-3.02-.58-.71,3.04-1.72,6.13-1.65,9.2.08,4.02,1.65,8.04,1.52,12.03-.2,6.5-1.57,12.96-1.87,19.47-.34,7.14-.04,14.32-.02,21.49,0,4.3-.04,8.59-.06,13.23-3.47-14.05-6.43-27.76-10.36-41.18-2.25-7.64-1.24-15.88-4.95-23.13-.35-.69-.65-1.49-1.21-1.98-.25-.22-1.49.07-1.57.33-.67,2.57-1.67,5.18-1.65,7.77.04,3.31,1.28,6.59,1.39,9.91.14,5.03-.26,10.07-.42,15.11-.33-.01-.67-.01-1.01-.01-.13-1.32-.24-2.64-.4-3.94-3.08-25.45-5.57-50.97-9.43-76.3-4.07-26.74-9.46-53.29-14.29-79.92-1.78-9.78-3.31-19.61-5.48-29.31-3.82-17.04-8.18-33.97-12.06-51-1.45-6.31-3.66-12.63-1.53-19.33.34-1.08-.32-2.65-.87-3.81-4.32-8.98-5.38-18.42-4.39-27.45,1.75-1.44,3.52-2.24,4-3.51.33-.87-1.14-2.42-1.89-3.84,1.64-2.19.41-5.44-2.7-5.4-2.06.01-2.97-.46-3.84-2.28-.49-1.04-2.05-2.09-3.15-2.12-.8-.02-1.64,1.65-2.45,2.58-.82.97-1.45,2.48-2.47,2.82-3.77,1.29-4.55,3.46-1.99,6.51-2.82,3.42-2.52,4.39,1.6,5.51.67.18,1.58.79,1.74,1.38,2.45,8.73,3.08,17.54,1.45,26.54-.42,2.33.27,4.91.64,7.34.26,1.75,1.18,3.47,1.18,5.21.12,18.81.13,37.63.14,56.45,0,4.99-.12,9.99-.18,15.19-3.02-1.08-6.13-2.05-9.11-3.34-.89-.39-1.79-1.61-2-2.59-1.74-8.57-3.4-17.15-4.92-25.75-1.04-5.85-1.47-11.82-2.75-17.6-4.02-18.25-8.44-36.41-12.43-54.67-.67-3.06.06-6.43-.01-9.65-.04-1.79.06-3.78-.65-5.33-4.2-9.2-4.73-18.83-4.01-27.81,1.94-1.6,3.68-2.46,4.39-3.85.34-.66-1.29-2.32-2.12-3.65,1.61-2.15.56-5.23-2.44-5.26-2.22-.02-3.19-.68-4.11-2.58-.51-1.05-2.15-2.32-3.1-2.18-.99.15-1.74,1.86-2.6,2.88-.8.97-1.42,2.47-2.44,2.81-3.77,1.27-4.52,3.26-2.4,6.04-.59,1.48-1.82,3.37-1.44,3.81,1.13,1.27,2.92,1.95,4.79,3.07.09.42.31,1.37.51,2.32,1.89,8.56,2.95,17.11.87,25.86-.44,1.84.19,3.98.54,5.96.36,2.11,1.41,4.18,1.41,6.26-.07,14.21-.27,28.4-.55,42.6-.13,6.67-.79,13.33-.69,20,.12,8.47.89,16.95,1.12,25.42.73,27.3,1.31,54.61,1.99,81.91.15,6.13.49,12.25.75,18.76-4.86-1.53-9.12-2.91-13.41-4.19-4.19-1.26-5.07-2.98-3.38-7.13.89-2.19.26-3.61-1.72-4.88-1.01-.65-1.84-1.88-2.28-3.04-1.35-3.47-1.66-7.72-3.92-10.37-2.66-3.14-2.61-6.14-2.71-9.74,2.57-.47,4.91-.89,7.37-1.35-.22-2.2-.42-4.18-.65-6.36-2.66.12-5.13.24-7.64.34-.44-2.58-.8-4.7-1.19-7.06-2.34.24-4.41.45-6.64.67.08,2.48.15,4.73.24,7.08-2.67.46-5.01.86-7.53,1.29.24,2.26.44,4.26.66,6.44,2.64-.04,5.12-.07,7.92-.12.12,2.68,1.24,5.81.13,7.34-3.26,4.5-2.72,9.39-3.04,14.3-.05.84-.4,1.93-1.01,2.4-2.48,1.89-2.19,3.65-.81,6.26.77,1.44.53,4.84-.51,5.56-4.3,3-9.07,5.31-14.05,8.07-.45-2.38-.84-4.25-1.15-6.14-2.14-12.93-4.11-25.9-6.45-38.79-3.27-17.91-6.89-35.77-10.24-53.66-1.81-9.65-3.06-19.41-5.18-28.98-3.46-15.64-7.59-31.13-11.09-46.76-1.42-6.4-4.05-12.79-1.86-19.64.34-1.08-.28-2.66-.84-3.82-4.35-9.12-5.06-18.74-4.34-27.62,1.92-1.73,3.54-2.65,4.2-4.04.32-.65-1.21-2.18-2-3.47,1.73-2.59.4-5.07-3.13-5.56-1.14-.15-2.22-1.13-3.24-1.86-1.15-.84-2.25-2.58-3.3-2.52-1,.06-1.88,1.93-2.86,2.97-.87.92-1.64,2.17-2.71,2.62-3.35,1.42-3.94,3.65-1.72,6.18-.64,1.35-1.91,2.82-1.58,3.7.36.94,2.22,1.27,3.39,1.97.65.39,1.57.85,1.73,1.45,2.39,8.98,3.27,18.04,1.71,27.3-.39,2.27.11,4.73.48,7.06.33,2.09,1.49,4.14,1.52,6.21.09,10.07.02,20.15-.15,30.22-.2,10.55-.93,21.09-.82,31.64.14,13.45.91,26.9,1.33,40.36.02.84-.28,2.08-.87,2.48-2.86,1.94-5.87,3.66-9.31,5.76-.36-3.58-.36-6.61-1.02-9.51-3.18-14.21-6.74-28.34-9.74-42.58-1.82-8.71-4.81-17.32-3.13-26.52.26-1.41-.29-3.19-.98-4.53-4.57-8.87-4.64-18.28-4.02-26.82,1.98-1.6,3.74-2.38,4.24-3.65.32-.84-1.2-2.38-1.84-3.48.28-.88,1.21-2.39.85-2.86-.98-1.21-2.53-2.77-3.84-2.74-2.11.02-2.94-.64-3.88-2.34-.58-1.04-2.11-2.06-3.24-2.08-.79-.01-1.6,1.68-2.44,2.57-.93,1-1.89,1.97-2.87,2.91-1.09,1.05-2.6,1.88-3.19,3.15-.32.68.93,2.08,1.31,2.85-.55,1.29-1.91,3.27-1.51,3.73,1.11,1.27,2.94,1.89,4.88,3.01,2.97,11.46,3.15,16.12,1.31,28.72-.22,1.49.21,3.11.49,4.64.56,3.17,1.79,6.31,1.79,9.46.01,25.08-.39,50.16-.31,75.24.09,24.52-.06,49.07,1.12,73.55,1.46,30.2,4.19,60.33,6.37,90.49.12,1.53.31,3.06.46,4.59-.29.05-.58.09-.87.15-.59-2.9-1.17-5.8-1.74-8.7-.16.04-.32.06-.48.08-1.13,13.78-2.27,27.55-3.4,41.33-.98-.33-1.27-.67-1.41-1.08-5.36-14.44-11-28.8-15.84-43.4-1.72-5.18-3.95-10.8-1.41-16.61.21-.49-.15-1.73-.58-1.94-2.72-1.33-2.29-3.93-2.93-6.19-.28-.99-1.62-1.67-2.48-2.48-.72.91-1.95,1.78-2.06,2.75-.25,2.44.75,5.04-1.79,6.99-.36.28.24,1.94.52,2.92.29,1.01,1.05,1.98,1.07,2.97.12,5.2.58,10.46-.04,15.59-1.67,13.97-3.8,27.89-5.78,41.83-.18,1.19-.56,2.35-.85,3.53-.34.02-.68.06-1.02.08-.48-.88-1.07-1.72-1.41-2.65-5.28-14.35-10.83-28.6-15.64-43.1-1.72-5.18-4.08-10.71-1.68-16.52.24-.58.09-1.86-.26-2.04-2.88-1.44-2.17-4.28-2.92-6.58-.32-.95-1.73-1.93-2.75-2.08-.58-.08-1.89,1.47-1.99,2.39-.26,2.51,1.02,5.3-1.77,7.25-.29.21-.31,1.26-.06,1.71,3.15,5.64,2.65,11.78,1.91,17.71-1.86,14.92-4.17,29.8-6.33,44.69-.12.84-.51,1.64-.93,2.98-2.08-2.68-2.29-6.59-6.51-6.08-.11.99-.26,1.94-.31,2.91-.62,13.7-1.22,27.4-1.89,41.1-.06,1.12-.29,2.95-.94,3.2-4.26,1.68-3.92,5.05-3.57,8.53,2.78,27.3,5.57,54.62,8.34,81.93.12,1.18.09,2.37.15,3.71-2.94.47-5.65.91-8.66,1.39.26,2.57.35,4.86.76,7.11.47,2.58-.55,3.39-3.01,3.61-9.43.85-18.85,1.86-28.28,2.82-1.27.13-2.53.38-3.87.59.34,3.41.65,6.4.98,9.59,131.73-13.38,263.2-26.75,394.61-40.1l.07-27.19s37.24-1.27,36.56-31.08c-.67-29.8-35.76-36.99-35.76-36.99ZM332.3,652.76c-2.37.62-2.73-1.6-2.92-3.51-.51-5.18-1.04-10.35-1.57-15.52h.05c-.53-5.18-1.21-10.34-1.46-15.54-.07-1.32,1.01-3.59,1.99-3.86,2.28-.62,2.98,1.41,3.18,3.37,1.06,10.35,2.21,20.69,3.04,31.06.11,1.33-1.21,3.72-2.31,4ZM340.06,463.39c1.48-1.51,3.4-2.58,5.73-4.26.66,19.94,1.29,39.16,1.93,58.36-.06.01-.12.02-.18.02-2.98-16.83-6-33.65-8.86-50.49-.2-1.13.53-2.78,1.38-3.64ZM342.8,644.64c-2.53.75-2.78-1.54-2.97-3.4-.58-5.43-1.12-10.86-1.67-16.3h-.02c-.54-5.44-1.12-10.86-1.64-16.3-.18-1.75-.16-3.92,2.18-3.65,1.12.12,2.75,2,2.91,3.24,1.29,10.85,2.4,21.73,3.31,32.61.11,1.26-1.07,3.5-2.09,3.8ZM352.78,636.47c-2.51.68-2.78-1.6-2.98-3.45-.55-5.19-1.06-10.38-1.59-15.57-.05,0-.11.01-.15.01-.51-4.94-1.05-9.9-1.49-14.85-.18-2.02-.61-4.68,2.2-4.8.99-.05,2.82,2.52,3,4.05,1.24,10.24,2.2,20.51,3.01,30.8.09,1.27-1.02,3.54-2,3.81ZM369.65,610.84c-.79-1-2.12-1.93-2.27-3.01-.75-5.4-1.19-10.84-1.74-16.28-.56-5.43-1.25-10.84-1.58-16.28-.07-1.27,1.04-2.6,1.61-3.91.91,1.11,2.48,2.14,2.62,3.35,1.31,10.83,2.44,21.68,3.39,32.54.09,1.13-1.33,2.39-2.04,3.58ZM379.62,602.7c-2.18.55-2.65-1.38-2.82-3.2-.59-5.9-1.2-11.8-1.8-17.7h-.02c-.59-5.78-1.31-11.55-1.66-17.34-.08-1.34,1.12-2.77,1.72-4.14.93,1.21,2.52,2.35,2.67,3.66,1.38,11.65,2.57,23.34,3.61,35.03.11,1.24-.84,3.48-1.69,3.7ZM389.24,594.76c-.92-1.19-2.49-2.31-2.65-3.59-1.28-10.95-2.38-21.93-3.32-32.91-.09-1.22,1.17-2.55,1.8-3.82.89,1.11,2.41,2.13,2.59,3.34.81,5.64,1.26,11.32,1.84,16.99.04-.01.07-.01.09-.01.54,5.31,1.24,10.6,1.52,15.92.06,1.32-1.21,2.72-1.87,4.07ZM411.76,584.63c-.07,1.01-.8,1.97-1.13,2.99-.33.99-1.09,2.35-.72,2.99,2.98,5.04-1.99,9.13-1.48,13.83.04.33-.91,1.13-1.13,1.05-.55-.22-1.31-.81-1.33-1.29-.2-2.75-.47-5.54-.21-8.27.31-3.19-.09-5.91-2.17-8.51-1.05-1.33-1.73-3.19-1.95-4.9-1.64-12.75-2.97-25.53-4.73-38.25-.52-3.7.35-6.01,3.63-7.64,2.02-1.01,3.92-2.28,6.04-3.53-.06,6.37-.29,12.03-.11,17.68.12,3.5,1.34,6.57,5.03,8.18.86.38,1.64,2.12,1.59,3.2-.29,7.5-.78,14.98-1.32,22.48ZM461.81,546.27c.48-.06.95-.12,1.44-.16.54,1.18,1.42,2.31,1.57,3.53,1.24,11.19,2.41,22.4,3.41,33.61.11,1.12-.99,2.35-1.52,3.53-.78-1.02-2.11-1.99-2.24-3.1-1.27-10.82-2.39-21.66-3.4-32.51-.15-1.6.47-3.27.74-4.91ZM441.18,548.45c-1.01-5.92-2.32-11.8-3.71-18.71,3.45,1.41,6.71,2.59,9.78,4.13.8.4,1.38,1.91,1.47,2.95,1.25,13.88,2.42,27.76,3.52,41.66.09,1.11-.19,2.51-.84,3.35-2.08,2.72-2,5.38-.98,8.53,1.09,3.38,1.48,6.99,2.18,10.5-.54.14-1.07.29-1.61.44-.89-1.99-1.66-4.05-2.72-5.96-1.48-2.7-3.81-5.07-2.42-8.59.14-.36-.09-1-.35-1.38-5.32-7.57-5.98-16.71-8.42-25.25-.35-1.22.32-3.32,1.27-4.21,2.25-2.13,3.33-4.58,2.82-7.47ZM473.91,780.14c-17.59,1.79-35.04,3.57-53.19,5.41-.31-5.31-.72-10.45-.86-15.62-.38-12.53.27-24.97,3.52-37.18,2.27-8.53,5.8-16.45,11.59-23.24,3.85-4.51,5.17-4.71,9.99-1.15,7.94,5.85,13.04,13.92,17.1,22.7,6.92,14.94,9.94,30.87,11.9,47.07.07.58-.02,1.16-.06,2.01ZM477.97,592.89c-.81-1.04-2.2-2-2.33-3.12-1.39-11.91-2.64-23.83-3.72-35.77-.11-1.13,1.11-2.37,1.71-3.55.86,1.11,2.32,2.12,2.48,3.33.84,5.99,1.33,12.03,1.94,18.05.58,5.78,1.28,11.56,1.65,17.36.08,1.19-1.12,2.46-1.73,3.7ZM489.1,598.58c-.75-1.06-2.04-2.05-2.17-3.19-1.31-10.44-2.41-20.91-3.57-31.38-.05-.47-.19-1.05,0-1.44.58-1.17,1.29-2.26,1.97-3.39.69,1.01,1.86,1.95,2,3.05.74,5.51,1.21,11.06,1.77,16.59h-.05c.55,5.43,1.21,10.83,1.57,16.26.07,1.12-.99,2.32-1.52,3.48ZM490.83,499.49c-2.98-17.81-5.94-35.6-9.04-54.09,2.62,1.19,4.74,2,6.7,3.1.69.39,1.4,1.44,1.42,2.21.61,16.23,1.12,32.46,1.65,48.69-.25.02-.48.06-.73.09ZM510.85,620.51c-2.5.31-2.73-1.57-2.92-3.27-.59-5.31-1.09-10.63-1.64-15.95.04,0,.07-.01.11-.01-.53-5.19-1.22-10.38-1.47-15.59-.07-1.37,1.21-2.79,1.87-4.19,1.05,1.25,2.86,2.4,3.04,3.75,1.29,10.49,2.28,21.01,3.38,31.52.2,1.89-.11,3.46-2.37,3.74ZM522.4,626.29c-1-.05-2.62-1.8-2.75-2.91-1.28-11.22-2.38-22.46-3.32-33.7-.08-1,1.37-2.12,2.11-3.19.92.93,2.51,1.77,2.65,2.81.81,5.64,1.27,11.32,1.85,17.01.01-.01.04-.01.06-.01.55,5.44,1.09,10.86,1.65,16.3.19,1.84-.01,3.81-2.24,3.68ZM534.02,632.36c-.88-.93-2.4-1.77-2.54-2.79-.79-5.51-1.24-11.06-1.79-16.59-.53-5.18-1.2-10.35-1.48-15.52-.06-1.21,1.22-2.49,1.88-3.74.98,1.01,2.7,1.94,2.82,3.06,1.26,10.8,2.32,21.64,3.21,32.48.08.98-1.37,2.07-2.11,3.11ZM617.42,626.48c-.25-1.2-.51-2.42-.75-3.65-1.69.67-2.87,1.14-4.28,1.71-1.84-5.19-3.38-10.17-5.33-14.98-2.6-6.41-.86-13.65-4.01-19.9-.45-.88-.99-1.8-1.73-2.4-.26-.22-1.69.29-1.81.69-.69,2.54-1.68,5.16-1.62,7.72.09,4.14,1.49,8.29,1.32,12.39-.28,6.38-1.74,12.69-2.12,19.07-.19,3.22-.27,6.46-.32,9.7,5.86-.82,14.33-3.27,20.67-10.35Z"/>
  </g>
  <path class="cls-1" d="M705.44,340.19h521.3c14.57,0,26.4,11.83,26.4,26.4v712.7c0,14.57-11.83,26.4-26.4,26.4h-530.2c-14.57,0-26.4-11.83-26.4-26.4V375.5c0-19.49,15.82-35.31,35.31-35.31Z" transform="translate(2.08 -2.75) rotate(.16)"/>
  <path class="cls-3" d="M591.04,266.59l51.73-1.54s11.71,35.5,43.17,32.76c31.46-2.74,34.46-31.17,34.46-31.17l58.21.17s8.27,34.04,36.58,31.54c28.3-2.5,40.34-32.68,40.34-32.68l55.9.16s8.7,33.07,36.71,33.04c28.02-.03,52.03-32.78,52.03-32.78l56.43.16s6.09,31.14,38.64,33.04c32.55,1.9,44.18-32.81,44.18-32.81l55.35.16s11.89,32.2,41.61,30.62,42.17-30.38,42.17-30.38l50.18.14-.16,56.31s-35,3.76-36.15,32.38c-1.15,28.63,35.97,32.17,35.97,32.17l-.17,58.23s-34.64-2.02-35.23,34.2c-.59,36.22,35.04,32.62,35.04,32.62l-.17,59.61s-35.81.72-34.91,30.8c.9,30.08,34.73,33.47,34.73,33.47l-.16,55.9s-38.55,7.62-36.02,38.17c2.54,30.55,35.81,33.8,35.81,33.8l-.92,54.26s-39.12,9.18-35.16,37.09c3.96,27.91,34.98,34.04,34.98,34.04l.58,57.55s-39.02,2.92-35.77,36.85,35.26,31.92,35.26,31.92l.15,58.28s-34.74,4.85-31.77,33.84c2.97,28.99,31.59,27.15,31.59,27.15l-.13,44.23-51.99,1.83s-9.64-31.12-41.51-31.22c-31.86-.09-39.23,30.98-39.23,30.98l-60.16-.17s-7.19-30.14-40.43-30.31c-33.24-.17-38.82,30.08-38.82,30.08l-61.47-.42s-3.02-31.69-36.8-30.75c-33.78.94-42.66,30.77-42.66,30.77l-59.47-.17s-4.55-32-38.83-30.83c-34.29,1.17-39.45,30.6-39.45,30.6l-58.65-.17s.09-30.14-37.55-30.17-40.74,29.95-40.74,29.95l-50.54-.14.63-45.77s36.5-6.78,34.77-32.06c-1.73-25.28-34.59-31.14-34.59-31.14l.56-58.26s33.09-1.28,34.25-32.85-34.45-34.01-34.45-34.01l.55-57.11s36.07-.55,35.27-35.2c-.8-34.64-35.95-36.25-35.95-36.25l.16-55.08s37.23-1.27,36.56-31.08c-.67-29.8-35.76-36.99-35.76-36.99l.06-56.78s31.93,2.4,35.86-30.68c3.93-33.08-36.16-37.17-36.16-37.17l.67-58.65s33.98,2.01,36.75-32.04c2.77-34.05-37.05-36.09-37.05-36.09l.65-54.11s38.29-1.57,36.1-37.06c-2.19-35.49-35.9-32.57-35.9-32.57l.26-52.21Z"/>
  <g>
    <path class="cls-4" d="M976.65,567.57c7.32,1.81,14.6,3.75,21.96,5.4-3.68,3.18-8.16,5.16-12.25,7.73-3.89,2.09-7.45,4.76-11.48,6.57.66-6.56,1.48-13.11,1.77-19.69Z"/>
    <path class="cls-4" d="M1007.42,574.83c6.39,9.21,12.18,18.86,18,28.46-15.24-4.03-30.73-7.1-45.95-11.23.9-1.09,1.94-2.05,3.16-2.77,8.08-5.14,16.7-9.36,24.8-14.46Z"/>
    <path class="cls-4" d="M1016.63,577.26c7.67,1.88,15.47,3.15,23,5.55-2.46,6.16-5.31,12.14-8.02,18.2-.99-.82-1.95-1.71-2.61-2.81-4.3-6.87-8.8-13.64-12.37-20.93Z"/>
    <path class="cls-4" d="M943.14,583.46c9.13-5.05,18.33-9.96,27.67-14.57-.78,6.81-.65,13.67-.84,20.51-9.04-1.51-17.8-4.34-26.83-5.93Z"/>
    <path class="cls-4" d="M1043.88,586.44c6.61,8.12,12.19,17.05,17.97,25.77-8.68-2.96-17.74-4.49-26.58-6.88,2.82-6.32,6.14-12.42,8.61-18.89Z"/>
    <path class="cls-4" d="M941.17,588.39c9.23,2.62,18.9,3.92,27.9,7.15,1.75,14.09,1.92,28.34,3.51,42.45.45,2.36-.16,5.09,1.17,7.16,1.69.48,3.42.78,5.15,1.12-.62-16.57-3.39-33.01-3.41-49.61,17.29,3.66,34.28,8.54,51.43,12.81-8,14.63-17.76,28.21-26.42,42.44,1.79.37,3.69,2.27,5.5,1.38,9.48-13.91,17.94-28.48,27.18-42.54,9.56,1.73,18.79,4.74,28.27,6.78-12.7,8.76-23.72,19.67-35.88,29.13-3.66,3.26-7.56,6.3-10.76,10.04,7.28,3.22,14.61,6.39,21.48,10.42-2.03-5.84-5.27-11.17-8.22-16.57,3.95-3.89,8.25-7.41,12.57-10.87,11.45,18.33,23.12,36.52,34.91,54.64,7.36,11.8,15.52,23.11,22.52,35.14,14.46,25.78,21.57,55.34,22.03,84.81-.26,38.79-14.6,77.09-38.99,107.15-24.01,29.1-57.52,50.69-94.58,58.54-40,9.3-83.39,3.2-119.2-16.96-29.99-16.77-54.77-42.88-69.55-73.93-7.13-14.29-11.95-29.65-15.18-45.26-7.32-40.85,1.03-84.17,22.68-119.54,11.04-17.42,24.73-33.29,41.21-45.79,10.08-8.28,21.63-14.42,33.02-20.65,15.2-8.42,30-17.55,45.19-26,7.89-4.4,15.58-9.15,23.29-13.83.9-.74,1.53-.57,1.9.52,1.84,4.7,3.81,9.38,5.15,14.27-5.68,2.94-10.7,6.93-16.04,10.4,8.32-.13,16.65-.19,24.95.67-5.98-19.13-15.55-36.83-22.77-55.48M966.21,665.81c-14.47-1.53-29.19-1.25-43.49,1.5-32.11,5.98-61.84,23.13-83.48,47.56-28.31,31.07-41.27,74.9-36.33,116.46,4.08,34.71,20.94,67.58,46.22,91.63,13.74,12.38,29.41,22.87,46.8,29.37,20.61,7.89,42.95,11.56,64.97,9.62,15.87-1.03,31.33-5.41,46.05-11.27,35.72-14.85,65.01-44.43,79.64-80.23,14.36-33.74,15.39-72.86,2.96-107.35-11.19-31.37-32.91-59.19-61.59-76.36-18.62-11.61-40.03-18.31-61.74-20.92Z"/>
  </g>
  <g>
    <path class="cls-2" d="M1071.43,568.47s24.51-17.34,48.65-11.54"/>
    <path class="cls-2" d="M1040.39,541.69s9.34-28.84-3.03-50.69"/>
    <line class="cls-2" x1="1054.48" y1="552.36" x2="1091.23" y2="511.58"/>
  </g>
</svg>