<?xml version="1.0" encoding="UTF-8"?>
<svg id="Laag_2" data-name="Laag 2" xmlns="http://www.w3.org/2000/svg" xmlns:xlink="http://www.w3.org/1999/xlink" viewBox="0 0 1920 800">
  <defs>
    <style>
      .cls-1 {
        fill: none;
      }

      .cls-2 {
        fill: #f1eacb;
      }

      .cls-3 {
        fill: #62100d;
      }

      .cls-4 {
        clip-path: url(#clippath);
      }
    </style>
    <clipPath id="clippath">
      <rect class="cls-1" x="1497.73" y="387.01" width="262.86" height="342.42"/>
    </clipPath>
  </defs>
  <rect class="cls-3" x="0" width="1920" height="800"/>
  <g>
    <g>
      <path class="cls-2" d="M392.72,494.97c0-5.6,5.02-13.52,13.13-13.52,6.57,0,16.03,2.51,20.86-.77,7.34-6.18,10.04-15.64,10.04-66.82v-41.13c0-48.28-.97-48.28-10.81-48.28h-4.25c-1.54,0-1.54-1.74,0-1.74,5.41,0,22.21.58,24.91.58,2.9,0,18.54-.58,23.95-.58,1.54,0,1.54,1.74,0,1.74h-3.48c-10.43,0-10.81.39-10.81,48.28v20.47c0,9.85.39,21.63.39,26.65,0,34.76-9.46,44.8-31.67,66.43-8.3,7.72-18.15,14.29-23.37,14.29-5.79,0-8.88-2.12-8.88-5.6Z"/>
      <path class="cls-2" d="M483.49,421.2v-36.31c0-16.61-2.7-16.22-12.55-14.48-1.54.19-1.54-1.54,0-1.74,9.85-1.74,22.02-6.18,28.58-9.85.58-.39,3.48.39,3.48,1.35v59.29c0,22.4,9.08,29.93,20.47,29.93,10.24,0,17.38-4.83,25.3-15.26v-49.24c0-16.61-2.7-16.22-12.36-14.48-1.54.19-1.54-1.54,0-1.74,9.66-1.74,21.63-6.18,28.19-9.85.58-.39,3.48.39,3.48,1.35v73.38c0,19.5.77,21.24,9.85,21.24,1.16,0,1.16,1.74,0,1.74-13.33,0-22.98,1.16-29.35,1.93-1.54.19-1.54-.58-1.54-1.74,0-1.35,1.74-10.04,1.74-20.28-10.04,13.32-21.63,22.21-35.53,22.21-17.77,0-29.74-8.88-29.74-37.46Z"/>
      <path class="cls-2" d="M585.26,454.8c8.3,0,9.08-2.32,9.08-21.24v-107.37c0-16.61-2.7-16.8-12.36-15.06-1.74.19-1.74-1.54,0-1.74,9.66-1.74,21.63-6.18,28.19-9.85.58-.39,3.48.39,3.48,1.35v132.67c0,20.08,1.16,21.24,11.01,21.24,1.54,0,1.54,1.74,0,1.74-5.6,0-15.06-.39-17.96-.39s-15.84.39-21.44.39c-1.54,0-1.54-1.74,0-1.74Z"/>
      <path class="cls-2" d="M629.29,454.8c11.01,0,11.78-2.9,11.78-19.5v-50.6c0-14.68-2.32-15.26-11.97-13.13-1.54.39-2.12-1.16-.58-1.54,9.66-2.12,20.66-7.15,28.39-11.97.58-.39,3.48.39,3.48,1.35v75.89c0,16.61.58,19.5,11.39,19.5,1.54,0,1.54,1.74,0,1.74-5.6,0-17.77-.39-20.66-.39s-16.22.39-21.82.39c-1.54,0-1.54-1.74,0-1.74ZM636.63,329.66c0-7.15,5.79-13.13,12.94-13.13s13.13,5.99,13.13,13.13-5.79,12.75-13.13,12.75-12.94-5.79-12.94-12.75Z"/>
      <path class="cls-2" d="M680.27,437.03c0-12.94,11.39-24.72,48.67-39.2l15.06-5.79c-.58-24.33-5.79-32.44-18.73-32.44-5.41,0-9.46,1.93-12.36,5.21-5.21,5.21-7.53,13.71-10.24,18.54-1.74,3.48-4.44,5.02-10.81,5.02s-9.46-2.7-9.46-5.99,2.51-7.53,7.72-11.01c8.69-5.99,25.3-13.32,38.43-13.32,20.47,0,34.57,9.66,34.57,34.95,0,12.36-1.16,32.83-1.16,41.52,0,10.24,1.16,15.26,5.02,15.26,3.48,0,8.11-6.57,10.24-11.39.97-1.54,3.48-.19,2.32,1.54-2.9,4.44-15.06,18.54-25.3,18.54-8.3,0-12.17-4.83-12.17-15.06,0-4.44.19-10.24.58-13.71-4.44,9.27-20.47,28.97-37.85,28.97-14.87,0-24.53-9.85-24.53-21.63ZM717.35,447.85c12.17,0,23.17-15.26,25.49-22.02.19-4.06,1.16-15.26,1.16-29.93v-2.51l-14.68,6.37c-23.37,9.85-30.71,16.8-30.71,30.13,0,9.85,7.72,17.77,18.73,17.96Z"/>
      <path class="cls-2" d="M895.59,431.82c-7.15,10.62-23.37,26.26-37.27,26.26-16.61,0-30.51-16.41-30.51-32.06,0-13.52,15.84-31.09,33.41-33.02-9.85-12.75-16.61-24.14-16.61-31.48,0-23.56,16.8-39.4,37.27-39.59,10.43-.19,27.62,3.48,33.41,6.18-.58,4.25-2.12,19.31-2.12,35.92,0,2.32-1.93,2.32-1.93,0-1.74-11.39-4.44-20.66-9.08-28-4.83-7.72-12.36-12.55-21.05-12.55-14.48,0-23.56,8.5-23.56,22.98,0,13.71,18.73,35.34,38.43,57.16,25.11,28,45,44.8,55.62,44.8,5.79,0,7.53-11.78,7.53-25.1,0-10.62-1.93-22.79-5.99-31.48l-22.01-.19c-10.43,0-16.61,0-20.86.58-.97.19-1.35,0-.77-.97,3.86-4.83,9.27-14.87,11.01-14.87h26.46c7.34,0,16.03-.58,18.54-1.16,1.16-.19,1.93.39.77,1.16-4.44,3.86-7.72,11.01-11.01,15.26,9.66,6.57,18.93,16.03,18.93,29.16,0,16.03-23.95,36.89-41.13,36.89-8.11,0-21.05-9.46-37.46-25.88ZM872.81,445.53c7.92,0,15.06-5.41,21.44-15.06-4.83-5.02-10.04-10.62-15.45-16.61-5.99-6.57-11.78-13.32-16.8-19.7-14.68,3.28-18.92,9.08-19.5,20.28,1.16,16.61,18.35,31.09,30.32,31.09Z"/>
      <path class="cls-2" d="M998.33,494.97c0-5.6,5.02-13.52,13.13-13.52,6.57,0,16.03,2.51,20.86-.77,7.34-6.18,10.04-15.64,10.04-66.82v-41.13c0-48.28-.97-48.28-10.81-48.28h-4.25c-1.54,0-1.54-1.74,0-1.74,5.41,0,22.21.58,24.91.58,2.9,0,18.54-.58,23.95-.58,1.54,0,1.54,1.74,0,1.74h-3.48c-10.43,0-10.81.39-10.81,48.28v20.47c0,9.85.39,21.63.39,26.65,0,34.76-9.46,44.8-31.67,66.43-8.3,7.72-18.15,14.29-23.37,14.29-5.79,0-8.88-2.12-8.88-5.6Z"/>
      <path class="cls-2" d="M1079.06,437.03c0-12.94,11.39-24.72,48.67-39.2l15.06-5.79c-.58-24.33-5.79-32.44-18.73-32.44-5.41,0-9.46,1.93-12.36,5.21-5.21,5.21-7.53,13.71-10.23,18.54-1.74,3.48-4.44,5.02-10.81,5.02s-9.46-2.7-9.46-5.99,2.51-7.53,7.72-11.01c8.69-5.99,25.3-13.32,38.43-13.32,20.47,0,34.57,9.66,34.57,34.95,0,12.36-1.16,32.83-1.16,41.52,0,10.24,1.16,15.26,5.02,15.26,3.48,0,8.11-6.57,10.23-11.39.97-1.54,3.48-.19,2.32,1.54-2.9,4.44-15.06,18.54-25.3,18.54-8.3,0-12.17-4.83-12.17-15.06,0-4.44.19-10.24.58-13.71-4.44,9.27-20.47,28.97-37.85,28.97-14.87,0-24.53-9.85-24.53-21.63ZM1116.13,447.85c12.17,0,23.17-15.26,25.49-22.02.19-4.06,1.16-15.26,1.16-29.93v-2.51l-14.68,6.37c-23.37,9.85-30.71,16.8-30.71,30.13,0,9.85,7.72,17.77,18.73,17.96Z"/>
      <path class="cls-2" d="M1179.67,454.8c7.72,0,8.88-2.32,8.88-21.24v-48.09c0-5.6-4.44-10.62-8.88-14.68-.58-.58-.39-.97,0-1.16,3.48-1.35,15.45-7.34,18.93-10.62.39-.39.58-.39,1.16.19,3.67,3.48,7.92,12.36,7.92,20.28,9.46-12.75,20.66-21.44,35.53-21.44,18.15,0,31.09,10.04,31.09,39.01v40.55c0,16.61,2.7,17.38,9.08,17.19,1.54,0,1.54,1.74,0,1.74s-18.54-.39-21.63-.39c-2.9,0-10.81.39-16.41.39-1.54,0-1.54-1.74,0-1.74,7.92,0,9.66-1.35,9.66-18.35v-40.75c-.19-22.4-9.66-30.13-21.05-30.13-10.43,0-17.77,4.83-26.07,16.03v73.19h10.04c1.54,0,1.54,1.74,0,1.74s-16.42-.39-19.5-.39c-2.9,0-13.13.39-18.73.39-1.54,0-1.54-1.74,0-1.74Z"/>
      <path class="cls-2" d="M1291.29,454.8c7.72,0,8.88-2.32,8.88-21.24v-48.09c0-5.6-4.44-10.62-8.88-14.68-.58-.58-.39-.97,0-1.16,3.48-1.35,15.45-7.34,18.93-10.62.39-.39.58-.39,1.16.19,3.67,3.48,7.92,12.36,7.92,20.28,9.46-12.75,20.66-21.44,35.53-21.44,18.15,0,31.09,10.04,31.09,39.01v40.55c0,16.61,2.7,17.38,9.08,17.19,1.54,0,1.54,1.74,0,1.74s-18.54-.39-21.63-.39c-2.9,0-10.81.39-16.41.39-1.54,0-1.54-1.74,0-1.74,7.92,0,9.66-1.35,9.66-18.35v-40.75c-.19-22.4-9.66-30.13-21.05-30.13-10.43,0-17.77,4.83-26.07,16.03v73.19h10.04c1.54,0,1.54,1.74,0,1.74s-16.42-.39-19.5-.39c-2.9,0-13.13.39-18.73.39-1.54,0-1.54-1.74,0-1.74Z"/>
      <path class="cls-2" d="M1400.59,454.8c11.01,0,11.78-2.9,11.78-19.5v-50.6c0-14.68-2.32-15.26-11.97-13.13-1.54.39-2.12-1.16-.58-1.54,9.66-2.12,20.66-7.15,28.39-11.97.58-.39,3.48.39,3.48,1.35v75.89c0,16.61.58,19.5,11.39,19.5,1.54,0,1.54,1.74,0,1.74-5.6,0-17.77-.39-20.66-.39s-16.22.39-21.82.39c-1.54,0-1.54-1.74,0-1.74ZM1407.93,329.66c0-7.15,5.79-13.13,12.94-13.13s13.13,5.99,13.13,13.13-5.79,12.75-13.13,12.75-12.94-5.79-12.94-12.75Z"/>
      <path class="cls-2" d="M1454.09,452.1c-.97-.19-1.35-.97-1.35-2.7,0-2.9,1.54-12.36,1.54-33.8,0-1.54,1.35-1.74,1.35-.19.39,12.75,3.09,23.56,9.46,30.71,5.6,6.76,14.29,10.81,25.88,10.81,16.03,0,23.17-7.92,23.17-18.73,0-12.75-14.68-17.38-29.55-22.4-16.03-5.41-32.25-11.39-32.25-27.42,0-20.28,20.47-30.32,37.85-30.32,15.26,0,21.82,1.35,31.67,3.09,1.16.39,1.54.77,1.54,1.54,0,5.79-.97,24.91-.97,33.22,0,1.54-1.35,1.54-1.54,0-.19-10.24-2.51-18.73-6.95-25.1-5.41-7.34-13.52-11.2-24.91-11.2-14.68,0-23.95,6.37-23.95,15.45,0,12.75,14.29,17.57,29.35,22.79,16.03,5.41,32.83,11.39,32.83,28.77s-15.64,31.86-37.46,31.86c-19.89,0-28-4.25-35.73-6.37Z"/>
    </g>
    <g>
      <g>
        <path class="cls-2" d="M777.4,218.96l10.34-5.2c7.89-3.96,15.75-1.68,19.42,5.61,3.66,7.29.8,14.97-7.09,18.93l-10.34,5.2-12.33-24.54ZM798.33,235.35c6.07-3.05,8.09-8.72,5.32-14.22-2.77-5.5-8.52-7.26-14.59-4.22l-6.63,3.33,9.27,18.44,6.63-3.33Z"/>
        <path class="cls-2" d="M835.6,218.9l1.29,3.16-18.47,7.51-10.34-25.45,17.96-7.3,1.29,3.16-14.32,5.82,3.18,7.82,12.76-5.19,1.26,3.09-12.76,5.19,3.34,8.22,14.83-6.03Z"/>
        <path class="cls-2" d="M872.85,203.07c1.31,4.52-1.37,8.12-8.04,10.05l-12.59,3.64-7.63-26.39,11.84-3.42c6.07-1.75,10.2-.17,11.44,4.09.83,2.87-.06,5.29-1.84,6.91,3.22-.03,5.82,1.63,6.84,5.13ZM849.23,192.33l2.44,8.44,7.73-2.23c3.85-1.11,5.62-3.18,4.81-5.97-.81-2.79-3.41-3.59-7.25-2.48l-7.73,2.23ZM868.95,203.87c-.88-3.05-3.54-3.76-7.72-2.55l-8.67,2.51,2.54,8.78,8.67-2.51c4.19-1.21,6.06-3.18,5.18-6.24Z"/>
        <path class="cls-2" d="M898.34,205.26l-7.5-7.07c-.53.15-1.1.31-1.68.42l-6.65,1.37,1.68,8.19-3.84.79-5.53-26.91,10.49-2.16c7-1.44,11.95,1.23,13.15,7.07.85,4.15-.68,7.59-4.17,9.71l8.24,7.72-4.19.86ZM894.63,187.76c-.79-3.84-3.81-5.51-8.73-4.5l-6.53,1.34,2.49,12.11,6.53-1.34c4.92-1.01,7.04-3.77,6.25-7.61Z"/>
        <path class="cls-2" d="M906.16,191.85l-1.89-15.5,3.9-.48,1.87,15.35c.74,6.04,3.84,8.43,8.74,7.83,4.91-.6,7.38-3.67,6.64-9.71l-1.87-15.35,3.78-.46,1.89,15.5c.97,7.91-2.85,12.6-10.06,13.48-7.17.88-12.04-2.76-13-10.67Z"/>
        <path class="cls-2" d="M936.58,172.96l3.92-.25,1.72,27.41-3.92.25-1.72-27.41Z"/>
        <path class="cls-2" d="M949.74,172.22l3.92-.06.34,24.05,14.87-.21.05,3.41-18.79.27-.39-27.47Z"/>
        <path class="cls-2" d="M971.06,185.61c.49-8.03,7.05-13.64,15.47-13.13,8.34.51,14.17,6.85,13.67,14.92-.5,8.07-7.05,13.64-15.4,13.13-8.42-.52-14.24-6.89-13.75-14.92ZM996.29,187.16c.37-6.07-3.9-10.82-9.97-11.19-6.15-.38-10.97,3.81-11.34,9.88-.37,6.07,3.9,10.82,10.05,11.2,6.07.37,10.89-3.81,11.26-9.89Z"/>
        <path class="cls-2" d="M1012.05,178.64l-1.34,9.48,13.64,1.93-.47,3.34-13.64-1.93-1.56,11-3.89-.55,3.86-27.2,19.2,2.72-.48,3.38-15.31-2.17Z"/>
        <path class="cls-2" d="M1039.48,183.26l-9.22-1.94.7-3.34,22.23,4.68-.7,3.34-9.22-1.94-4.95,23.54-3.8-.8,4.95-23.54Z"/>
        <path class="cls-2" d="M1092.26,194.2l-19.77,22.56-3.7-1.17-3.24-29.84,4.04,1.28,2.63,24.5,16.31-18.51,3.74,1.18Z"/>
        <path class="cls-2" d="M1104.78,221.35l-13.56-5.4-5.35,5.26-3.76-1.5,21.72-20.92,3.61,1.44,1.43,30.14-3.83-1.52-.27-7.5ZM1104.66,217.92l-.52-14.7-10.49,10.31,11.01,4.39Z"/>
        <path class="cls-2" d="M1145.19,217.5l-11.83,24.79-2.9-1.39-6.05-25.58-8.82,18.48-3.54-1.69,11.83-24.79,2.9,1.39,6.05,25.58,8.82-18.48,3.54,1.69Z"/>
      </g>
      <g>
        <path class="cls-2" d="M835.1,609.07v14.7h-2.08v-12.87h-3.32v-1.83h5.4Z"/>
        <path class="cls-2" d="M848.65,621.94v1.83h-10.56v-1.43l5.98-5.77c1.55-1.51,1.85-2.44,1.85-3.36,0-1.51-1.07-2.44-3.13-2.44-1.57,0-2.86.5-3.76,1.6l-1.43-1.24c1.13-1.41,3.09-2.23,5.38-2.23,3.07,0,5.04,1.57,5.04,4.09,0,1.43-.42,2.71-2.41,4.62l-4.49,4.33h7.54Z"/>
        <path class="cls-2" d="M856.02,616.41c0-4.79,2.56-7.52,6-7.52s5.98,2.73,5.98,7.52-2.56,7.52-5.98,7.52-6-2.73-6-7.52ZM865.91,616.41c0-3.76-1.6-5.65-3.88-5.65s-3.91,1.89-3.91,5.65,1.6,5.65,3.91,5.65,3.88-1.89,3.88-5.65Z"/>
        <path class="cls-2" d="M880.97,616.23c0,5.02-2.83,7.71-6.95,7.71-1.39,0-2.71-.27-3.65-.86l.8-1.64c.78.5,1.76.69,2.83.69,2.98,0,4.87-1.87,4.87-5.54v-.52c-.86,1.28-2.41,1.93-4.24,1.93-2.92,0-5.02-1.74-5.02-4.45s2.27-4.64,5.19-4.64c3.95,0,6.17,2.65,6.17,7.33ZM878.38,613.43c0-1.51-1.22-2.83-3.51-2.83-1.91,0-3.23,1.11-3.23,2.86s1.28,2.83,3.34,2.83,3.4-1.24,3.4-2.86Z"/>
        <path class="cls-2" d="M898.96,621.94v1.83h-10.56v-1.43l5.98-5.77c1.55-1.51,1.85-2.44,1.85-3.36,0-1.51-1.07-2.44-3.13-2.44-1.57,0-2.86.5-3.76,1.6l-1.43-1.24c1.13-1.41,3.09-2.23,5.38-2.23,3.07,0,5.04,1.57,5.04,4.09,0,1.43-.42,2.71-2.41,4.62l-4.49,4.33h7.54Z"/>
        <path class="cls-2" d="M900.62,616.41c0-4.79,2.56-7.52,6-7.52s5.98,2.73,5.98,7.52-2.56,7.52-5.98,7.52-6-2.73-6-7.52ZM910.51,616.41c0-3.76-1.6-5.65-3.88-5.65s-3.91,1.89-3.91,5.65,1.6,5.65,3.91,5.65,3.88-1.89,3.88-5.65Z"/>
        <path class="cls-2" d="M924.9,621.94v1.83h-10.56v-1.43l5.98-5.77c1.55-1.51,1.85-2.44,1.85-3.36,0-1.51-1.07-2.44-3.13-2.44-1.57,0-2.86.5-3.76,1.6l-1.43-1.24c1.13-1.41,3.09-2.23,5.38-2.23,3.07,0,5.04,1.57,5.04,4.09,0,1.43-.42,2.71-2.41,4.62l-4.49,4.33h7.54Z"/>
        <path class="cls-2" d="M937.94,619.29c0,2.83-2.29,4.64-5.21,4.64-3.95,0-6.17-2.65-6.17-7.33,0-5.02,2.83-7.71,6.95-7.71,1.39,0,2.71.27,3.65.86l-.8,1.64c-.76-.5-1.76-.69-2.81-.69-2.98,0-4.89,1.87-4.89,5.54,0,.17,0,.34.02.52.84-1.26,2.39-1.93,4.22-1.93,2.92,0,5.04,1.74,5.04,4.45ZM935.9,619.38c0-1.72-1.3-2.83-3.36-2.83s-3.38,1.24-3.38,2.86c0,1.51,1.22,2.83,3.49,2.83,1.91,0,3.25-1.11,3.25-2.86Z"/>
        <path class="cls-2" d="M946.36,608.18h1.87v19.65h-1.87v-19.65Z"/>
        <path class="cls-2" d="M971.91,623.76l-.02-10.71-5.31,8.92h-.97l-5.31-8.86v10.65h-2.02v-14.7h1.72l6.13,10.33,6.05-10.33h1.72l.02,14.7h-2.02Z"/>
        <path class="cls-2" d="M987.71,620.09h-7.81l-1.62,3.67h-2.16l6.66-14.7h2.08l6.68,14.7h-2.2l-1.62-3.67ZM986.97,618.41l-3.17-7.2-3.17,7.2h6.34Z"/>
        <path class="cls-2" d="M1003.35,620.09h-7.81l-1.62,3.67h-2.16l6.66-14.7h2.08l6.68,14.7h-2.2l-1.62-3.67ZM1002.62,618.41l-3.17-7.2-3.17,7.2h6.34Z"/>
        <path class="cls-2" d="M1019.19,623.76l-3.17-4.51c-.29.02-.61.04-.92.04h-3.63v4.47h-2.1v-14.7h5.73c3.82,0,6.13,1.93,6.13,5.12,0,2.27-1.18,3.91-3.23,4.64l3.49,4.93h-2.29ZM1019.12,614.19c0-2.1-1.41-3.3-4.09-3.3h-3.57v6.61h3.57c2.69,0,4.09-1.22,4.09-3.32Z"/>
        <path class="cls-2" d="M1037.27,609.07v14.7h-2.1v-6.55h-8.44v6.55h-2.1v-14.7h2.1v6.32h8.44v-6.32h2.1Z"/>
        <path class="cls-2" d="M1052.34,621.94v1.83h-10.67v-14.7h10.37v1.83h-8.27v4.51h7.37v1.78h-7.37v4.75h8.57Z"/>
        <path class="cls-2" d="M1066.41,621.94v1.83h-10.67v-14.7h10.37v1.83h-8.27v4.51h7.37v1.78h-7.37v4.75h8.57Z"/>
        <path class="cls-2" d="M1080.8,621.94v1.83h-12.28v-1.43l9.24-11.44h-9.09v-1.83h11.86v1.43l-9.2,11.44h9.47Z"/>
        <path class="cls-2" d="M1094.28,621.94v1.83h-10.67v-14.7h10.37v1.83h-8.27v4.51h7.37v1.78h-7.37v4.75h8.57Z"/>
      </g>
    </g>
  </g>
  <g class="cls-4">
    <image width="2480" height="3508" transform="translate(1299.73 47.63) scale(.21)" xlink:href="../../Uitnodiging/Save the Date/assets/Schets_Jannis_Geel.png"/>
  </g>
</svg>